<svg xmlns="http://www.w3.org/2000/svg" width="21.538" height="13.641" viewBox="0 0 21.538 13.641"><g transform="translate(0 -112.204)"><g transform="translate(0 112.204)"><path d="M454.711,395.756a1.831,1.831,0,1,0,1.831,1.831A1.833,1.833,0,0,0,454.711,395.756Zm0,2.369a.538.538,0,1,1,.538-.538A.539.539,0,0,1,454.711,398.125Z" transform="translate(-436.942 -385.777)"/><path d="M401.394,179.518h-3.163a.431.431,0,0,0-.431.431v8.4a.431.431,0,0,0,.431.431h.457a.429.429,0,0,0,.43-.365,2.482,2.482,0,0,1,4.9,0,.429.429,0,0,0,.43.365h.456a.431.431,0,0,0,.431-.431v-4.2a.43.43,0,0,0-.1-.276l-3.514-4.2A.431.431,0,0,0,401.394,179.518Zm-2.732,3.446V180.81a.431.431,0,0,1,.431-.431h1.9a.431.431,0,0,1,.331.155l1.795,2.154a.431.431,0,0,1-.331.706h-3.692A.431.431,0,0,1,398.662,182.964Z" transform="translate(-383.8 -177.149)"/><path d="M.431,123.835h1.1a.429.429,0,0,0,.43-.365,2.375,2.375,0,0,1,2.452-2.1,2.375,2.375,0,0,1,2.452,2.1.429.429,0,0,0,.43.365h5.41a.431.431,0,0,0,.431-.431V112.635a.431.431,0,0,0-.431-.431H.431a.431.431,0,0,0-.431.431V123.4A.431.431,0,0,0,.431,123.835Z" transform="translate(0 -112.204)"/><path d="M75.271,395.756a1.831,1.831,0,1,0,1.831,1.831A1.833,1.833,0,0,0,75.271,395.756Zm0,2.369a.538.538,0,1,1,.538-.538A.539.539,0,0,1,75.271,398.125Z" transform="translate(-70.855 -385.777)"/></g></g></svg>