<svg xmlns="http://www.w3.org/2000/svg" width="24.943" height="25.569" viewBox="0 0 24.943 25.569"><g transform="translate(-17.3 -11.625)"><g transform="translate(17.3 11.625)"><path d="M42.243,36.54V20.8c0-.162-.2-.366-.4-.518l-4.116-2.986v-3.3a.546.546,0,0,0-.544-.544H32.488L30.1,11.707a.59.59,0,0,0-.6,0l-2.39,1.742H22.415a.546.546,0,0,0-.544.544v3.264L17.7,20.285a.727.727,0,0,0-.4.518V36.65a.548.548,0,0,0,.5.544H41.694C42.044,37.189,42.243,36.917,42.243,36.54ZM41.207,21.775V35.562l-9-7.207Zm-.4-.957-3.081,2.244V18.554Zm-11.03-8.081.957.706H28.812Zm6.862,1.8v9.32l-6.862,5-6.862-5v-9.32Zm-18.3,7.239,9,6.58-9,7.249ZM21.876,23.1l-3.159-2.3,3.159-2.3ZM19.319,36.153l8.9-7.16,1.229.9a.467.467,0,0,0,.654,0l1.229-.9,8.949,7.16Z" transform="translate(-17.3 -11.625)"/><rect width="7.348" height="1.036" transform="translate(8.829 5.579)"/><rect width="7.348" height="1.036" transform="translate(8.829 8.9)"/><rect width="7.348" height="1.036" transform="translate(8.829 12.222)"/></g></g></svg>