<?xml version="1.0" encoding="utf-8"?>
<!-- Generator: Adobe Illustrator 23.0.6, SVG Export Plug-In . SVG Version: 6.00 Build 0)  -->
<svg version="1.1" id="Layer_1" xmlns="http://www.w3.org/2000/svg" xmlns:xlink="http://www.w3.org/1999/xlink" x="0px" y="0px"
	 viewBox="0 0 400 103.77" style="enable-background:new 0 0 400 103.77;" xml:space="preserve">
<g>
	<g>
		<path d="M134.64,35.09c-1.68,0.52-3.25,1.25-4.72,2.2c-1.48,0.95-2.78,2.09-3.92,3.42c-1.15,1.34-2.05,2.79-2.72,4.35h-0.21v-9.38
			H109.5v50.53h14.27V63.44c0-2.28,0.24-4.4,0.71-6.35c0.47-1.95,1.25-3.66,2.36-5.13c1.1-1.46,2.56-2.62,4.37-3.47
			c1.81-0.85,4.02-1.27,6.64-1.27c0.87,0,1.78,0.05,2.71,0.15c0.94,0.1,1.75,0.21,2.42,0.34V34.79c-1.14-0.32-2.18-0.49-3.12-0.49
			C138.06,34.3,136.31,34.57,134.64,35.09z"/>
		<path d="M57.21,38.81c0-2.87-0.45-5.64-1.35-8.32c-0.91-2.67-2.34-5.04-4.32-7.13c-1.98-2.09-4.54-3.77-7.69-5.04
			c-3.15-1.27-6.97-1.9-11.46-1.9H0v69.78l15.79,0V61.18h16.59c4.49,0,8.31-0.63,11.46-1.91c3.15-1.26,5.71-2.94,7.69-5.03
			c1.98-2.08,3.41-4.48,4.32-7.19C56.76,44.35,57.21,41.61,57.21,38.81z M40.77,44.18c-0.77,1.37-1.79,2.43-3.07,3.18
			c-1.27,0.75-2.74,1.26-4.42,1.52c-1.68,0.26-3.43,0.39-5.23,0.39H15.79V28.34h12.27c1.8,0,3.55,0.13,5.23,0.39
			c1.68,0.26,3.15,0.76,4.42,1.51c1.28,0.76,2.29,1.81,3.07,3.18c0.77,1.37,1.16,3.16,1.16,5.38
			C41.93,41.02,41.54,42.81,40.77,44.18z"/>
		<path d="M100.56,41.58c-2.35-2.31-5.18-4.1-8.5-5.37c-3.33-1.27-7.02-1.91-11.11-1.91c-4.09,0-7.77,0.64-11.05,1.91
			c-3.29,1.27-6.1,3.06-8.45,5.37c-2.34,2.33-4.16,5.12-5.43,8.42c-1.27,3.29-1.91,6.95-1.91,10.99c0,4.05,0.64,7.69,1.91,10.95
			c1.27,3.25,3.09,6.04,5.43,8.36c2.35,2.31,5.16,4.09,8.45,5.32c3.28,1.24,6.97,1.87,11.05,1.87c4.09,0,7.79-0.63,11.11-1.87
			c3.32-1.23,6.15-3.01,8.5-5.32c2.34-2.32,4.16-5.1,5.43-8.36c1.27-3.26,1.91-6.91,1.91-10.95c0-4.04-0.64-7.7-1.91-10.99
			C104.72,46.71,102.91,43.91,100.56,41.58z M93.02,66.91c-0.4,1.91-1.09,3.65-2.06,5.18c-0.97,1.53-2.28,2.76-3.92,3.66
			c-1.65,0.92-3.67,1.37-6.09,1.37c-2.41,0-4.42-0.45-6.03-1.37c-1.61-0.91-2.9-2.13-3.87-3.66c-0.97-1.53-1.65-3.26-2.06-5.18
			c-0.4-1.92-0.6-3.9-0.6-5.92c0-2.02,0.2-4.01,0.6-5.96c0.41-1.96,1.09-3.68,2.06-5.18c0.97-1.49,2.27-2.72,3.87-3.67
			c1.61-0.94,3.61-1.42,6.03-1.42c2.41,0,4.44,0.47,6.09,1.42c1.64,0.95,2.95,2.17,3.92,3.67c0.97,1.5,1.65,3.22,2.06,5.18
			c0.41,1.95,0.6,3.94,0.6,5.96C93.62,63.01,93.43,64.99,93.02,66.91z"/>
		<path d="M158.81,20.53h-14.27v5.36v9.79v9.28v10.77v19.05c0,2.54,0.44,4.59,1.3,6.16c0.87,1.56,2.06,2.76,3.57,3.61
			c1.51,0.84,3.25,1.42,5.23,1.72c1.97,0.29,4.06,0.43,6.28,0.43c1.41,0,2.85-0.03,4.32-0.09c1.47-0.07,2.81-0.2,4.03-0.39V75.46
			c-0.67,0.13-1.38,0.23-2.11,0.29c-0.74,0.07-1.51,0.1-2.32,0.1c-2.41,0-4.02-0.39-4.82-1.18c-0.81-0.78-1.21-2.34-1.21-4.69V44.96
			h10.46v-9.28h-10.46V20.53z"/>
	</g>
	<g>
		<path d="M287.94,39.31c0-2.87-0.44-5.64-1.35-8.31c-0.91-2.68-2.35-5.05-4.32-7.14c-1.98-2.09-4.55-3.76-7.69-5.04
			c-3.1-1.25-6.87-1.88-11.28-1.9c0.78-1.04,1.49-2.02,2.11-2.94c2.17-3.38,5.08-9.1,3.83-13.98c-0.05,0.08-0.08,0.17-0.08,0.28
			c0,4.9-1.38,9.27-8.67,18.36c-0.49,0.66-0.97,1.3-1.47,1.93c-0.04,0.05-0.08,0.1-0.12,0.15c-0.11,0.14-0.22,0.27-0.33,0.41
			c-1.35,1.65-2.86,3.4-4.56,5.2c-2.13,2.2-4.45,4.34-7.14,6.57c-5.9,5.01-11.05,8.99-15.77,12.2c-0.04,0.03-3.99,3.03-12.19,7.03
			c-0.35,0.17-0.7,0.35-1.06,0.53c0,0,0.01,0,0.01-0.01c1.63-1.79,2.7-3.81,3.75-6.08c1.13-2.47,1.69-5.44,1.69-8.88
			c0-3.33-0.65-6.32-1.95-8.98c-1.31-2.66-3.06-4.91-5.27-6.74c-2.2-1.81-4.76-3.21-7.68-4.19c-2.92-0.97-5.97-1.47-9.17-1.47
			c-4.22,0-7.95,0.7-11.2,2.1c-3.25,1.4-5.94,3.35-8.08,5.86c-2.13,2.5-3.75,5.44-4.81,8.78c-1.07,3.36-1.54,9.4-1.4,13.29h13.65
			c0-1.82,0.18-6.07,0.55-7.93c0.37-1.85,0.98-3.55,1.85-5.07c0.87-1.53,2.03-2.76,3.46-3.72c1.44-0.94,3.19-1.41,5.27-1.41
			c3.07,0,5.6,0.93,7.57,2.78c1.98,1.85,2.96,4.44,2.96,7.76c0,2.09-0.48,3.93-1.45,5.56c-0.98,1.62-2.18,3.09-3.62,4.39
			c-1.44,1.31-3.02,2.49-4.75,3.57c-1.75,1.07-3.39,2.13-4.93,3.17c-3,2.02-5.87,4-8.57,5.95c-2.7,1.95-5.07,4.09-7.07,6.39
			c-2.01,2.31-3.59,4.93-4.76,7.85c-1.18,2.92-1.76,6.38-1.76,10.34h7.55c-0.01,0.01-0.01,0.02-0.02,0.03l0.06-0.03
			c-6.48,9.32-5.3,17.29-5.26,17.54c0.07-0.1,0.11-0.22,0.1-0.35c-0.22-3.28,0.7-8.87,6.3-16.85c3.36-4.79,8.15-9.93,14.24-15.27
			c10.5-9.35,17.77-14.69,24.32-17.88c5.96-2.91,9.64-5.25,11.31-6.39v39.92h15.77V61.69h16.6c4.49,0,8.32-0.64,11.47-1.91
			c3.14-1.27,5.71-2.95,7.69-5.03c1.97-2.09,3.42-4.48,4.32-7.18C287.5,44.87,287.94,42.11,287.94,39.31z M271.51,44.68
			c-0.77,1.37-1.8,2.43-3.07,3.17c-1.27,0.76-2.75,1.26-4.42,1.52c-1.68,0.26-3.42,0.39-5.23,0.39h-12.28V34.73
			c0.37-0.31,0.74-0.62,1.11-0.94c2.01-1.67,3.83-3.29,5.51-4.93l5.65-0.01c1.81,0,3.55,0.13,5.23,0.39
			c1.67,0.26,3.15,0.77,4.42,1.51c1.27,0.75,2.3,1.81,3.07,3.18c0.77,1.36,1.15,3.17,1.15,5.39
			C272.66,41.52,272.28,43.31,271.51,44.68z"/>
		<path d="M400,45.46v-9.28h-10.45V21.03h-14.28v5.35v9.79v9.28v10.77v19.05c0,2.54,0.43,4.59,1.31,6.15
			c0.87,1.56,2.06,2.77,3.56,3.62c1.52,0.86,3.25,1.42,5.24,1.71c1.98,0.29,4.07,0.44,6.28,0.44c1.42,0,2.85-0.03,4.33-0.1
			c1.46-0.07,2.81-0.19,4.01-0.39V75.96c-0.68,0.14-1.37,0.23-2.11,0.3c-0.74,0.07-1.51,0.1-2.32,0.1c-2.41,0-4.03-0.39-4.82-1.17
			c-0.82-0.79-1.2-2.35-1.2-4.69V45.46H400z"/>
		<path d="M331.3,42.09c-2.36-2.31-5.18-4.1-8.5-5.37c-3.32-1.27-7.03-1.91-11.12-1.91c-4.08,0-7.77,0.64-11.05,1.91
			c-3.29,1.27-6.09,3.06-8.45,5.37c-2.34,2.31-4.15,5.11-5.42,8.41c-1.28,3.29-1.91,6.96-1.91,11c0,4.04,0.63,7.68,1.91,10.94
			c1.27,3.26,3.08,6.04,5.42,8.36c2.36,2.31,5.16,4.09,8.45,5.33c3.28,1.23,6.97,1.85,11.05,1.85c4.09,0,7.8-0.62,11.12-1.85
			c3.32-1.24,6.14-3.02,8.5-5.33c2.34-2.32,4.15-5.1,5.42-8.36c1.27-3.26,1.91-6.9,1.91-10.94c0-4.04-0.64-7.7-1.91-11
			C335.45,47.2,333.64,44.4,331.3,42.09z M323.76,67.41c-0.4,1.92-1.09,3.65-2.06,5.18c-0.97,1.54-2.28,2.76-3.92,3.67
			c-1.65,0.91-3.67,1.36-6.09,1.36c-2.41,0-4.42-0.45-6.02-1.36c-1.62-0.92-2.9-2.13-3.88-3.67c-0.96-1.53-1.65-3.25-2.06-5.18
			c-0.39-1.92-0.6-3.89-0.6-5.91c0-2.02,0.21-4.01,0.6-5.96c0.41-1.96,1.1-3.68,2.06-5.18c0.98-1.5,2.26-2.72,3.88-3.68
			c1.61-0.93,3.61-1.4,6.02-1.4c2.42,0,4.44,0.47,6.09,1.4c1.64,0.96,2.95,2.18,3.92,3.68c0.97,1.5,1.66,3.22,2.06,5.18
			c0.4,1.95,0.6,3.94,0.6,5.96C324.36,63.52,324.16,65.49,323.76,67.41z"/>
		<path d="M365.37,35.6c-1.68,0.52-3.25,1.25-4.73,2.19c-1.48,0.95-2.78,2.09-3.92,3.43c-1.14,1.33-2.05,2.78-2.71,4.35h-0.21v-9.38
			h-13.58v50.53h14.28V63.94c0-2.28,0.24-4.4,0.71-6.36c0.47-1.96,1.26-3.67,2.37-5.13c1.11-1.47,2.56-2.62,4.38-3.47
			c1.8-0.85,4.01-1.27,6.62-1.27c0.87,0,1.78,0.05,2.72,0.15c0.94,0.1,1.75,0.21,2.41,0.35V35.29c-1.14-0.32-2.18-0.49-3.11-0.49
			C368.79,34.8,367.04,35.07,365.37,35.6z"/>
	</g>
</g>
</svg>
