<?xml version="1.0" encoding="utf-8"?>
<!-- Generator: Adobe Illustrator 24.0.1, SVG Export Plug-In . SVG Version: 6.00 Build 0)  -->
<svg version="1" id="Layer_1" xmlns="http://www.w3.org/2000/svg" xmlns:xlink="http://www.w3.org/1999/xlink" x="0px" y="0px"
	  width="516px" height="135px" xml:space="preserve">
<style type="text/css">
	.st0{fill:#FFFFFF;}
</style>
<g>
	<g>
		<path class="st0" d="M 173.9 46.5 c -2.2 0.7 -4.2 1.6 -6.1 2.8 c -1.9 1.2 -3.6 2.7 -5 4.4 c -1.5 1.7 -2.6 3.6 -3.5 5.6 h -0.3 v -12.1 h -17.4 v 65 h 18.4 v -29.3 c 0 -2.9 0.3 -5.6 0.9 -8.2 c 0.6 -2.5 1.6 -4.7 3 -6.6 c 1.4 -1.9 3.3 -3.4 5.6 -4.5 c 2.3 -1.1 5.2 -1.6 8.5 -1.6 c 1.1 0 2.3 0.1 3.5 0.2 c 1.2 0.1 2.3 0.3 3.1 0.4 v -16.6 c -1.5 -0.4 -2.8 -0.6 -4 -0.6 C 178.3 45.5 176 45.8 173.9 46.5 z"/>
		<path class="st0" d="M 74.3 51.3 c 0 -3.7 -0.6 -7.3 -1.7 -10.7 c -1.2 -3.4 -3 -6.5 -5.6 -9.2 c -2.6 -2.7 -5.8 -4.8 -9.9 -6.5 c -4.1 -1.6 -9 -2.4 -14.7 -2.4 h -41.6 v 89.7 l 20.3 0 v -32.2 h 21.3 c 5.8 0 10.7 -0.8 14.7 -2.5 c 4.1 -1.6 7.3 -3.8 9.9 -6.5 c 2.5 -2.7 4.4 -5.8 5.6 -9.2 C 73.8 58.4 74.3 54.9 74.3 51.3 z M 53.2 58.2 c -1 1.8 -2.3 3.1 -3.9 4.1 c -1.6 1 -3.5 1.6 -5.7 1.9 c -2.2 0.3 -4.4 0.5 -6.7 0.5 h -15.8 v -26.9 h 15.8 c 2.3 0 4.6 0.2 6.7 0.5 c 2.2 0.3 4.1 1 5.7 1.9 c 1.6 1 2.9 2.3 3.9 4.1 c 1 1.8 1.5 4.1 1.5 6.9 C 54.7 54.1 54.2 56.4 53.2 58.2 z"/>
		<path class="st0" d="M 130.1 54.8 c -3 -3 -6.7 -5.3 -10.9 -6.9 c -4.3 -1.6 -9 -2.4 -14.3 -2.4 c -5.3 0 -10 0.8 -14.2 2.4 c -4.2 1.6 -7.8 3.9 -10.9 6.9 c -3 3 -5.3 6.6 -7 10.8 c -1.6 4.2 -2.5 8.9 -2.5 14.1 c 0 5.2 0.8 9.9 2.5 14.1 c 1.6 4.2 4 7.8 7 10.7 c 3 3 6.6 5.3 10.9 6.8 c 4.2 1.6 9 2.4 14.2 2.4 c 5.3 0 10 -0.8 14.3 -2.4 c 4.3 -1.6 7.9 -3.9 10.9 -6.8 c 3 -3 5.4 -6.6 7 -10.7 c 1.6 -4.2 2.5 -8.9 2.5 -14.1 c 0 -5.2 -0.8 -9.9 -2.5 -14.1 C 135.4 61.4 133.1 57.8 130.1 54.8 z M 120.4 87.4 c -0.5 2.5 -1.4 4.7 -2.6 6.7 c -1.3 2 -2.9 3.5 -5 4.7 c -2.1 1.2 -4.7 1.8 -7.8 1.8 c -3.1 0 -5.7 -0.6 -7.8 -1.8 c -2.1 -1.2 -3.7 -2.7 -5 -4.7 c -1.3 -2 -2.1 -4.2 -2.7 -6.7 c -0.5 -2.5 -0.8 -5 -0.8 -7.6 c 0 -2.6 0.3 -5.1 0.8 -7.7 c 0.5 -2.5 1.4 -4.7 2.7 -6.7 c 1.2 -1.9 2.9 -3.5 5 -4.7 c 2.1 -1.2 4.6 -1.8 7.8 -1.8 c 3.1 0 5.7 0.6 7.8 1.8 c 2.1 1.2 3.8 2.8 5 4.7 c 1.3 1.9 2.1 4.1 2.6 6.7 c 0.5 2.5 0.8 5.1 0.8 7.7 C 121.2 82.4 120.9 84.9 120.4 87.4 z"/>
		<path class="st0" d="M 205 27.8 h -18.4 v 6.9 v 12.6 v 11.9 v 13.8 v 24.5 c 0 3.3 0.6 5.9 1.7 7.9 c 1.1 2 2.6 3.6 4.6 4.6 c 1.9 1.1 4.2 1.8 6.7 2.2 c 2.5 0.4 5.2 0.6 8.1 0.6 c 1.8 0 3.7 0 5.6 -0.1 c 1.9 -0.1 3.6 -0.3 5.2 -0.5 V 98.4 c -0.9 0.2 -1.8 0.3 -2.7 0.4 c -0.9 0.1 -1.9 0.1 -3 0.1 c -3.1 0 -5.2 -0.5 -6.2 -1.5 c -1.1 -1 -1.6 -3 -1.6 -6 v -32.2 h 13.4 v -11.9 h -13.4 V 27.8 z"/>
	</g>
	<g>
		<path class="st0" d="M 371 51.9 c 0 -3.7 -0.6 -7.3 -1.7 -10.7 c -1.2 -3.4 -3 -6.5 -5.6 -9.2 c -2.5 -2.7 -5.9 -4.8 -9.9 -6.5 c -4 -1.6 -8.8 -2.4 -14.5 -2.4 c 1 -1.3 1.9 -2.6 2.7 -3.8 c 2.8 -4.3 6.5 -11.7 4.9 -18 c -0.1 0.1 -0.1 0.2 -0.1 0.3 c 0 6.3 -1.8 11.9 -11.1 23.6 c -0.6 0.8 -1.3 1.7 -1.9 2.5 c -0.1 0.1 -0.1 0.1 -0.1 0.2 c -0.1 0.2 -0.3 0.3 -0.4 0.5 c -1.7 2.1 -3.7 4.4 -5.9 6.7 c -2.7 2.8 -5.7 5.6 -9.2 8.4 c -7.6 6.4 -14.2 11.6 -20.3 15.7 c -0.1 0 -5.1 3.9 -15.7 9 c -0.4 0.2 -0.9 0.4 -1.4 0.7 c 0 0 0 0 0 0 c 2.1 -2.3 3.5 -4.9 4.8 -7.8 c 1.4 -3.2 2.2 -7 2.2 -11.4 c 0 -4.3 -0.8 -8.1 -2.5 -11.6 c -1.7 -3.4 -3.9 -6.3 -6.8 -8.7 c -2.8 -2.3 -6.1 -4.1 -9.9 -5.4 c -3.8 -1.3 -7.7 -1.9 -11.8 -1.9 c -5.4 0 -10.2 0.9 -14.4 2.7 c -4.2 1.8 -7.6 4.3 -10.4 7.5 c -2.8 3.2 -4.8 7 -6.2 11.3 c -1.4 4.3 -2 12.1 -1.8 17.1 h 17.6 c 0 -2.3 0.2 -7.8 0.7 -10.2 c 0.5 -2.4 1.3 -4.6 2.4 -6.5 c 1.1 -2 2.6 -3.6 4.4 -4.8 c 1.9 -1.2 4.1 -1.8 6.8 -1.8 c 3.9 0 7.2 1.2 9.7 3.6 c 2.6 2.4 3.8 5.7 3.8 10 c 0 2.7 -0.6 5.1 -1.9 7.1 c -1.3 2.1 -2.8 4 -4.7 5.6 c -1.9 1.7 -3.9 3.2 -6.1 4.6 c -2.2 1.4 -4.4 2.7 -6.3 4.1 c -3.9 2.6 -7.5 5.1 -11 7.7 c -3.5 2.5 -6.5 5.3 -9.1 8.2 c -2.6 3 -4.6 6.3 -6.1 10.1 c -1.5 3.8 -2.3 8.2 -2.3 13.3 h 9.7 c 0 0 0 0 0 0 l 0.1 0 c -8.3 12 -6.8 22.2 -6.8 22.6 c 0.1 -0.1 0.1 -0.3 0.1 -0.4 c -0.3 -4.2 0.9 -11.4 8.1 -21.7 c 4.3 -6.2 10.5 -12.8 18.3 -19.6 c 13.5 -12 22.9 -18.9 31.3 -23 c 7.7 -3.7 12.4 -6.8 14.5 -8.2 v 51.3 h 20.3 V 80.7 h 21.3 c 5.8 0 10.7 -0.8 14.7 -2.5 c 4 -1.6 7.3 -3.8 9.9 -6.5 c 2.5 -2.7 4.4 -5.8 5.6 -9.2 C 370.4 59.1 371 55.5 371 51.9 z M 349.9 58.8 c -1 1.8 -2.3 3.1 -3.9 4.1 c -1.6 1 -3.5 1.6 -5.7 2 c -2.2 0.3 -4.4 0.5 -6.7 0.5 h -15.8 v -19.3 c 0.5 -0.4 0.9 -0.8 1.4 -1.2 c 2.6 -2.1 4.9 -4.2 7.1 -6.3 l 7.3 0 c 2.3 0 4.6 0.2 6.7 0.5 c 2.1 0.3 4.1 1 5.7 1.9 c 1.6 1 3 2.3 4 4.1 c 1 1.8 1.5 4.1 1.5 6.9 C 351.4 54.8 350.9 57.1 349.9 58.8 z"/>
		<path class="st0" d="M 515.1 59.8 v -11.9 h -13.4 v -19.5 H 483.3 v 6.9 v 12.6 v 11.9 v 13.8 v 24.5 c 0 3.3 0.6 5.9 1.7 7.9 c 1.1 2 2.6 3.6 4.6 4.6 c 2 1.1 4.2 1.8 6.7 2.2 c 2.5 0.4 5.2 0.6 8.1 0.6 c 1.8 0 3.7 0 5.6 -0.1 c 1.9 -0.1 3.6 -0.2 5.2 -0.5 v -13.8 c -0.9 0.2 -1.8 0.3 -2.7 0.4 c -1 0.1 -1.9 0.1 -3 0.1 c -3.1 0 -5.2 -0.5 -6.2 -1.5 c -1 -1 -1.5 -3 -1.5 -6 v -32.2 H 515.1 z"/>
		<path class="st0" d="M 426.8 55.5 c -3 -3 -6.7 -5.3 -10.9 -6.9 c -4.3 -1.6 -9 -2.5 -14.3 -2.5 c -5.3 0 -10 0.8 -14.2 2.5 c -4.2 1.6 -7.8 3.9 -10.9 6.9 c -3 3 -5.3 6.6 -7 10.8 c -1.6 4.2 -2.5 8.9 -2.5 14.1 c 0 5.2 0.8 9.9 2.5 14.1 c 1.6 4.2 4 7.8 7 10.8 c 3 3 6.6 5.3 10.9 6.9 c 4.2 1.6 9 2.4 14.2 2.4 c 5.3 0 10 -0.8 14.3 -2.4 c 4.3 -1.6 7.9 -3.9 10.9 -6.9 c 3 -3 5.3 -6.6 7 -10.8 c 1.6 -4.2 2.5 -8.9 2.5 -14.1 c 0 -5.2 -0.8 -9.9 -2.5 -14.1 C 432.1 62.1 429.8 58.5 426.8 55.5 z M 417.1 88 c -0.5 2.5 -1.4 4.7 -2.6 6.7 c -1.3 2 -2.9 3.5 -5 4.7 c -2.1 1.2 -4.7 1.8 -7.8 1.8 c -3.1 0 -5.7 -0.6 -7.7 -1.8 c -2.1 -1.2 -3.7 -2.7 -5 -4.7 c -1.2 -2 -2.1 -4.2 -2.6 -6.7 c -0.5 -2.5 -0.8 -5 -0.8 -7.6 c 0 -2.6 0.3 -5.2 0.8 -7.7 c 0.5 -2.5 1.4 -4.7 2.6 -6.7 c 1.3 -1.9 2.9 -3.5 5 -4.7 c 2.1 -1.2 4.6 -1.8 7.7 -1.8 c 3.1 0 5.7 0.6 7.8 1.8 c 2.1 1.2 3.8 2.8 5 4.7 c 1.2 1.9 2.1 4.1 2.6 6.7 c 0.5 2.5 0.8 5.1 0.8 7.7 C 417.8 83 417.6 85.6 417.1 88 z"/>
		<path class="st0" d="M 470.6 47.1 c -2.2 0.7 -4.2 1.6 -6.1 2.8 c -1.9 1.2 -3.6 2.7 -5 4.4 c -1.5 1.7 -2.6 3.6 -3.5 5.6 h -0.3 v -12.1 h -17.5 v 65 h 18.4 v -29.3 c 0 -2.9 0.3 -5.6 0.9 -8.2 c 0.6 -2.5 1.6 -4.7 3 -6.6 c 1.4 -1.9 3.3 -3.4 5.6 -4.5 c 2.3 -1.1 5.2 -1.6 8.5 -1.6 c 1.1 0 2.3 0.1 3.5 0.2 c 1.2 0.1 2.3 0.3 3.1 0.4 v -16.6 c -1.5 -0.4 -2.8 -0.6 -4 -0.6 C 475 46.1 472.7 46.5 470.6 47.1 z"/>
	</g>
</g>
</svg>
