<svg xmlns="http://www.w3.org/2000/svg" width="5.307" height="8.035" viewBox="0 0 5.307 8.035"><path d="M138.216,83.965a1.918,1.918,0,0,1,.324-1.022,2.493,2.493,0,0,1,.945-.857,2.973,2.973,0,0,1,1.449-.34,3.094,3.094,0,0,1,1.359.284,2.2,2.2,0,0,1,.91.772,1.894,1.894,0,0,1,.321,1.061,1.641,1.641,0,0,1-.183.791,2.42,2.42,0,0,1-.435.586q-.252.247-.9.831a3.681,3.681,0,0,0-.289.289,1.174,1.174,0,0,0-.162.228,1.115,1.115,0,0,0-.082.207q-.029.1-.088.364a.591.591,0,0,1-.632.552.645.645,0,0,1-.464-.18.709.709,0,0,1-.188-.536,1.882,1.882,0,0,1,.5-1.345,8.383,8.383,0,0,1,.616-.586q.34-.3.491-.448a1.522,1.522,0,0,0,.255-.337.815.815,0,0,0,.1-.4.938.938,0,0,0-.316-.716,1.153,1.153,0,0,0-.815-.292,1.127,1.127,0,0,0-.86.295,2.348,2.348,0,0,0-.467.868q-.18.6-.685.6a.673.673,0,0,1-.5-.21A.641.641,0,0,1,138.216,83.965Zm2.59,5.817a.835.835,0,0,1-.565-.21.735.735,0,0,1-.241-.586.755.755,0,0,1,.234-.563.789.789,0,0,1,.573-.228.779.779,0,0,1,.791.791.741.741,0,0,1-.239.584A.806.806,0,0,1,140.806,89.782Z" transform="translate(-138.216 -81.747)"/></svg>