<?xml version="1.0" encoding="utf-8"?>
<!-- Generator: Adobe Illustrator 24.0.0, SVG Export Plug-In . SVG Version: 6.00 Build 0)  -->
<svg version="1.0" id="Layer_1" xmlns="http://www.w3.org/2000/svg" xmlns:xlink="http://www.w3.org/1999/xlink" x="0px" y="0px"
	 viewBox="0 0 1080 118.26" style="enable-background:new 0 0 1080 118.26;" xml:space="preserve">
<style type="text/css">
	.st0{fill:#BDB8B7;}
	.st1{fill:#605C5B;}
	.st2{fill:#FFFFFF;}
	.st3{fill:#332E2D;}
	.st4{fill:#F1F2F2;}
	.st5{fill:#959595;}
	.st6{fill:#949698;}
	.st7{fill:#979697;enable-background:new    ;}
	.st8{fill:#434748;}
	.st9{fill:#CBCACA;}
	.st10{enable-background:new    ;}
	.st11{fill:#979697;}
	.st12{fill:#7F7F7F;}
</style>
<g id="Group_400" transform="translate(220.268 3.857)">
	<g id="Group_399">
		<path id="Path_209" class="st0" d="M560.97,83.06c5.71,5.23,13.17,8.12,20.91,8.12c17.32,0,31.37-14.04,31.37-31.37
			s-14.04-31.37-31.37-31.37l0,0c-7.74-0.01-15.2,2.89-20.91,8.12c-12.84,11.73-13.75,31.65-2.02,44.49
			C559.59,81.75,560.27,82.42,560.97,83.06L560.97,83.06z"/>
		<path id="Path_210" class="st0" d="M608.91,77.31c0-0.56,0.45-1.01,1.01-1.01c0.56,0,1.01,0.45,1.01,1.01
			c0.03,0.56-0.39,1.04-0.95,1.07c-0.56,0.03-1.04-0.39-1.07-0.95C608.9,77.38,608.9,77.34,608.91,77.31z M609.92,78.07
			c0.42,0,0.77-0.34,0.77-0.76c0-0.42-0.34-0.77-0.76-0.77s-0.77,0.34-0.77,0.76c0,0,0,0.01,0,0.01
			C609.15,77.73,609.49,78.07,609.92,78.07z M609.78,77.74h-0.2v-0.89h0.37c0.08-0.01,0.15,0.01,0.22,0.05
			c0.07,0.05,0.11,0.13,0.11,0.22c0,0.1-0.07,0.19-0.16,0.22l0.17,0.4h-0.22l-0.14-0.35h-0.15v0.35v-0.5h0.11
			c0.05,0.01,0.09,0,0.13-0.02c0.03-0.03,0.04-0.06,0.05-0.1c0-0.04-0.02-0.07-0.05-0.09c-0.04-0.01-0.09-0.01-0.13,0h-0.11v0.73
			L609.78,77.74z"/>
		<path id="Path_211" class="st1" d="M571.05,56.5c-0.12-1.12-0.29-2.23-0.52-3.33h-19.09c0.23-1.12,0.53-2.23,0.89-3.32h17.28
			c-0.37-1.13-0.81-2.24-1.31-3.33h-14.63c0.53-1.14,1.13-2.26,1.8-3.33h11.04c-0.72-1.16-1.52-2.26-2.38-3.32h-6.31
			c0.96-1.18,2.01-2.3,3.14-3.33c-5.71-5.23-13.17-8.12-20.91-8.12c-17.32,0-31.37,14.04-31.37,31.37s14.04,31.37,31.37,31.37
			c7.74,0.01,15.2-2.89,20.91-8.12l0,0c1.14-1.02,2.19-2.13,3.15-3.32h-6.29c-0.87-1.05-1.66-2.16-2.38-3.32h11.03
			c0.67-1.07,1.27-2.17,1.8-3.32h-14.63c-0.5-1.08-0.94-2.19-1.32-3.32h17.26c0.36-1.09,0.67-2.2,0.91-3.33
			c0.23-1.08,0.4-2.2,0.52-3.33c0.11-1.11,0.17-2.22,0.17-3.33c0.01-1.09-0.04-2.18-0.16-3.27L571.05,56.5z"/>
		<path id="Path_212" class="st2" d="M608.91,67.1c0-0.56,0.46-1.01,1.02-1.01c0.56,0,1.01,0.46,1.01,1.02
			c0,0.56-0.46,1.01-1.02,1.01C609.36,68.11,608.9,67.66,608.91,67.1z M609.92,67.86c0.42,0,0.76-0.34,0.76-0.76c0,0,0,0,0,0
			c-0.03-0.42-0.39-0.74-0.81-0.71c-0.38,0.02-0.69,0.33-0.71,0.71C609.15,67.52,609.49,67.86,609.92,67.86L609.92,67.86z
			 M609.78,67.54h-0.2v-0.89h0.37c0.08-0.01,0.15,0.01,0.22,0.05c0.07,0.05,0.11,0.14,0.11,0.23c0,0.1-0.07,0.19-0.16,0.22l0.17,0.4
			h-0.22l-0.14-0.35h-0.15v0.35v-0.5h0.11c0.04,0.01,0.09,0.01,0.13,0c0.03-0.03,0.04-0.07,0.05-0.1c0-0.03-0.02-0.07-0.05-0.08
			c-0.04-0.02-0.09-0.02-0.13-0.02h-0.11v0.73L609.78,67.54z"/>
		<path id="Path_213" class="st3" d="M550.37,68.88c-0.82,0.26-1.68,0.41-2.55,0.42c-1.37,0.06-2.52-1-2.58-2.37
			c-0.01-0.16,0-0.31,0.02-0.47c0.01-0.39,0.04-0.77,0.09-1.16l0.2-1.27l0.16-1.02l1.46-8.82h3.27l-0.38,1.92h2.03l-0.47,3.27h-2.04
			l-0.91,5.27c-0.04,0.18-0.06,0.36-0.06,0.54c0,0.65,0.35,0.96,1.16,0.96c0.34,0,0.69-0.04,1.02-0.13l-0.43,2.86H550.37z"/>
		<path id="Path_214" class="st3" d="M560.83,68.75c-1.13,0.35-2.3,0.53-3.47,0.53c-2.87,0.31-5.45-1.77-5.75-4.64
			c-0.04-0.38-0.04-0.77,0-1.15c0-4.44,2.51-7.71,5.92-7.71c2.38-0.15,4.43,1.66,4.58,4.05c0.01,0.22,0.01,0.44-0.01,0.65
			c-0.02,1.08-0.16,2.15-0.42,3.2h-6.73c-0.02,0.13-0.03,0.27-0.03,0.41c0,1.5,1.01,2.26,2.96,2.26c1.22,0,2.42-0.28,3.52-0.82
			l-0.55,3.22L560.83,68.75z M558.8,61.06c0.02-0.27,0.03-0.49,0.03-0.65c0.09-0.82-0.5-1.57-1.32-1.66
			c-0.09-0.01-0.19-0.01-0.28-0.01c-1.07,0-1.84,0.82-2.15,2.32L558.8,61.06L558.8,61.06z"/>
		<path id="Path_215" class="st3" d="M524.54,69.03h-3.38l1.93-12.22l-4.32,12.22h-2.31l-0.28-12.15l-2.04,12.15h-3.28l2.64-15.91
			h4.87l0.14,9.85l3.28-9.85h5.35L524.54,69.03z"/>
		<path id="Path_216" class="st3" d="M532.66,63.28c-0.22-0.04-0.43-0.06-0.65-0.06c-1.92,0-2.89,0.74-2.89,1.96
			c-0.07,0.65,0.4,1.23,1.05,1.3c0.05,0.01,0.11,0.01,0.16,0.01c1.63,0,2.29-1.31,2.34-3.23L532.66,63.28z M535.33,69.03h-2.94
			l0.07-1.34c-0.82,1.11-2.17,1.71-3.55,1.57c-1.78-0.12-3.13-1.65-3.01-3.44c0-0.03,0-0.07,0.01-0.1c0.01-0.57,0.09-1.14,0.25-1.7
			c0.54-1.98,2.53-3.27,5.61-3.3c0.5-0.01,0.99,0.01,1.49,0.06c0.08-0.27,0.12-0.56,0.13-0.84c0-0.87-0.7-1.13-2.29-1.13
			c-0.94,0.01-1.88,0.14-2.79,0.39l-0.48,0.13l-0.2,0.06l0.47-2.91c1.26-0.43,2.59-0.67,3.92-0.69c2.91,0,4.45,1.31,4.45,3.8
			c0.04,0.86-0.02,1.71-0.17,2.56l-0.7,4.57l-0.11,0.83l-0.08,0.65l-0.07,0.46l-0.03,0.36L535.33,69.03z"/>
		<path id="Path_217" class="st3" d="M577.1,56.22c1.06,0.03,2.1,0.33,3.03,0.86l0.56-3.46c-0.31-0.12-0.39-0.16-0.82-0.33
			l-1.39-0.34c-0.5-0.12-1.01-0.18-1.52-0.17c-1.26-0.15-2.54,0.07-3.68,0.64c-0.75,0.46-1.43,1.04-2.02,1.7l-0.41-0.12l-3.44,2.46
			l0.17-1.39h-3.59l-2.06,12.93h3.38l1.24-6.96c0,0,0.48-0.95,0.71-1.26c0.4-0.63,1.14-0.95,1.88-0.82h0.23
			c-0.1,0.82-0.15,1.64-0.15,2.47c-0.44,3.32,1.89,6.37,5.21,6.81c0.27,0.04,0.55,0.05,0.82,0.05c1.01-0.01,2.02-0.17,2.99-0.47
			l0.6-3.62c-0.88,0.49-1.87,0.77-2.88,0.82c-1.96,0-3.16-1.45-3.16-3.88c0-3.49,1.78-5.95,4.3-5.95L577.1,56.22z"/>
		<path id="Path_218" class="st3" d="M605.68,53.13l-0.74,4.54c-0.63-1.12-1.81-1.82-3.1-1.81c-1.92,0.06-3.63,1.2-4.43,2.94v-0.02
			l-2.14-1.31l0.17-1.38h-3.59l-2.06,12.94h3.38l1.12-6.96c0,0,0.87-0.98,1.09-1.28c0.35-0.49,0.91-0.79,1.51-0.82
			c-0.42,1.24-0.63,2.54-0.61,3.86c0,3.22,1.68,5.37,4.14,5.37c1.2,0.02,2.35-0.51,3.12-1.43l-0.16,1.26h3.2l2.57-15.9L605.68,53.13
			L605.68,53.13z M601.56,66c-1.16,0-1.73-0.86-1.73-2.56c0-2.53,1.09-4.35,2.63-4.35c1.16,0,1.8,0.89,1.8,2.54
			C604.26,64.19,603.15,66,601.56,66L601.56,66z"/>
		<path id="Path_219" class="st3" d="M585.99,63.28c-0.22-0.04-0.43-0.06-0.65-0.06c-1.93,0-2.9,0.74-2.9,1.96
			c-0.07,0.65,0.41,1.23,1.06,1.3c0.05,0.01,0.11,0.01,0.16,0.01c1.63,0,2.29-1.31,2.34-3.23L585.99,63.28z M588.65,69.03h-2.94
			l0.07-1.34c-0.82,1.11-2.17,1.71-3.55,1.57c-1.81-0.09-3.21-1.64-3.11-3.46c0-0.03,0-0.06,0.01-0.1c0.02-3.07,2.3-4.97,5.96-4.97
			c0.5-0.02,0.99,0,1.49,0.06c0.08-0.27,0.12-0.56,0.13-0.84c0-0.87-0.7-1.14-2.29-1.14c-0.95,0.01-1.89,0.14-2.8,0.4l-0.47,0.13
			l-0.2,0.06l0.47-2.91c1.26-0.43,2.59-0.66,3.92-0.68c2.91,0,4.44,1.31,4.44,3.79c0.04,0.86-0.01,1.71-0.17,2.56l-0.7,4.57
			l-0.12,0.83l-0.08,0.65l-0.07,0.46l-0.03,0.36L588.65,69.03z"/>
		<path id="Path_220" class="st3" d="M542.4,58.87c0.85,0.01,1.7,0.07,2.54,0.2l0.48-2.98c-1-0.16-2.02-0.25-3.04-0.27
			c-3.77,0-5.02,2.03-5.02,4.42c0,1.6,1.01,3.02,2.52,3.54c1.37,0.65,1.6,0.76,1.6,1.36c0,0.8-0.7,1.26-2.04,1.26
			c-1.03,0-2.05-0.17-3.03-0.51l-0.39,2.98h0.07l0.62,0.13c0.29,0.06,0.59,0.1,0.88,0.13c0.81,0.08,1.49,0.12,1.93,0.12
			c3.75,0,5.31-1.46,5.31-4.31c0.04-1.62-0.99-3.09-2.53-3.59c-1.43-0.65-1.58-0.75-1.58-1.35S541.39,58.88,542.4,58.87L542.4,58.87
			z"/>
		<path id="Path_221" class="st4" d="M581.59,52.62l-0.56,3.46c-0.92-0.54-1.96-0.83-3.03-0.87c-2.52,0-4.29,2.45-4.29,5.96
			c0,2.41,1.19,3.88,3.16,3.88c1.01-0.04,2-0.32,2.88-0.82l-0.6,3.62c-0.97,0.3-1.98,0.46-2.99,0.47c-3.63,0-5.91-2.64-5.91-6.86
			c0-5.69,3.13-9.66,7.62-9.66c0.51,0,1.02,0.05,1.52,0.16l1.39,0.35c0.43,0.15,0.52,0.19,0.82,0.33V52.62z"/>
		<path id="Path_222" class="st4" d="M570.73,55c-0.11-0.02-0.22-0.03-0.33-0.04c-1.11,0-1.74,0.57-2.78,2.1l0.3-1.96h-3.07
			l-2.06,12.93h3.39c1.21-7.91,1.53-9.27,3.15-9.27c0.08-0.01,0.16-0.01,0.24,0c0.23-1.31,0.66-2.57,1.28-3.75l-0.12-0.03L570.73,55
			z"/>
		<path id="Path_223" class="st4" d="M551.23,67.88c-0.78,0.27-1.6,0.41-2.43,0.42c-1.36,0.12-2.57-0.9-2.68-2.26
			c-0.02-0.19-0.01-0.38,0.02-0.58c0-0.39,0.03-0.77,0.09-1.16l0.21-1.28l0.16-1.02l1.46-8.82h3.36l-0.39,1.92h1.72l-0.46,3.15
			h-1.73l-0.89,5.4c-0.04,0.17-0.07,0.35-0.07,0.53c0,0.65,0.35,0.96,1.16,0.96c0.31,0.01,0.61-0.03,0.9-0.12L551.23,67.88
			L551.23,67.88z"/>
		<path id="Path_224" class="st4" d="M538.24,59.19c-0.01,1.63,1.03,3.08,2.57,3.59c1.37,0.65,1.57,0.84,1.57,1.43
			c0,0.8-0.61,1.16-1.94,1.16c-1.03-0.01-2.06-0.18-3.04-0.51l-0.46,2.98l0.15,0.03l0.62,0.13c0.29,0.05,0.59,0.09,0.88,0.11
			c0.8,0.07,1.43,0.11,1.86,0.11c3.56,0,5.21-1.37,5.21-4.32c0.11-1.6-0.87-3.07-2.38-3.59c-1.43-0.65-1.58-0.8-1.58-1.4
			c0-0.71,0.57-1.06,1.66-1.06c0.81,0.01,1.62,0.08,2.42,0.2l0.48-2.99c-0.98-0.15-1.98-0.23-2.97-0.25
			C539.53,54.81,538.23,56.79,538.24,59.19L538.24,59.19z"/>
		<path id="Path_225" class="st4" d="M607.43,68.03h-3.21l0.17-1.26c-0.77,0.93-1.92,1.46-3.13,1.43c-2.46,0-4.08-2.13-4.08-5.38
			c0-4.3,2.52-7.94,5.51-7.94c1.31,0,2.53,0.67,3.23,1.78l0.74-4.55H610L607.43,68.03L607.43,68.03z M602.43,65
			c1.57,0,2.69-1.81,2.69-4.37c0-1.63-0.63-2.54-1.8-2.54c-1.54,0-2.63,1.81-2.63,4.35C600.68,64.13,601.28,65,602.43,65L602.43,65z
			"/>
		<path id="Path_226" class="st4" d="M561.57,67.76c-1.12,0.35-2.29,0.53-3.47,0.52c-2.82,0.36-5.4-1.63-5.77-4.46
			c-0.06-0.44-0.06-0.89,0-1.33c0-4.44,2.52-7.7,5.92-7.7c2.38-0.15,4.44,1.67,4.58,4.05c0.01,0.22,0.01,0.43-0.01,0.65
			c-0.02,1.08-0.16,2.15-0.41,3.2h-6.73c-0.02,0.13-0.03,0.27-0.04,0.4c0,1.51,1.01,2.26,2.97,2.26c1.22,0,2.42-0.28,3.51-0.82
			l-0.54,3.23H561.57z M559.67,60.05c0.03-0.27,0.03-0.49,0.03-0.65c0.1-0.82-0.49-1.57-1.31-1.67c-0.09-0.01-0.19-0.01-0.29-0.01
			c-1.07,0-1.84,0.83-2.15,2.32L559.67,60.05L559.67,60.05z"/>
		<path id="Path_227" class="st4" d="M525.41,68.03h-3.38l1.93-12.22l-4.33,12.22h-2.3l-0.29-12.16L515,68.03h-3.17l2.65-15.9h4.87
			l0.13,9.84l3.27-9.84h5.27L525.41,68.03z"/>
		<path id="Path_228" class="st4" d="M533.74,62.27c-0.25-0.04-0.5-0.05-0.75-0.06c-1.91,0-2.89,0.65-2.89,1.96
			c-0.07,0.65,0.39,1.24,1.05,1.32c0.05,0.01,0.11,0.01,0.16,0.01C532.69,65.5,533.68,64.18,533.74,62.27L533.74,62.27z
			 M536.2,68.03h-2.81l0.07-1.33c-0.86,1.06-2.18,1.65-3.55,1.57c-1.75-0.04-3.15-1.49-3.11-3.24c0-0.1,0.01-0.2,0.02-0.3
			c0-3.15,2.18-4.99,5.94-4.99c0.46,0.01,0.92,0.04,1.38,0.1c0.08-0.28,0.12-0.56,0.13-0.84c0-0.86-0.6-1.18-2.16-1.18
			c-0.95,0-1.89,0.12-2.81,0.36l-0.47,0.14l-0.33,0.08l0.48-2.92c1.31-0.43,2.67-0.66,4.04-0.68c2.9,0,4.43,1.31,4.43,3.79
			c-0.03,0.86-0.12,1.72-0.27,2.56l-0.71,4.57l-0.11,0.82l-0.08,0.65l-0.06,0.45l-0.03,0.37L536.2,68.03z"/>
		<path id="Path_229" class="st4" d="M587.05,62.27c-0.25-0.04-0.5-0.05-0.75-0.06c-1.92,0-2.89,0.65-2.89,1.96
			c-0.08,0.65,0.37,1.25,1.03,1.33c0.06,0.01,0.12,0.01,0.18,0.01C586,65.52,586.98,64.2,587.05,62.27L587.05,62.27z M589.51,68.03
			h-2.8l0.07-1.33c-0.86,1.06-2.19,1.65-3.55,1.57c-1.75-0.04-3.15-1.49-3.11-3.24c0-0.1,0.01-0.2,0.02-0.3
			c0-3.15,2.18-4.99,5.94-4.99c0.46,0.01,0.92,0.04,1.38,0.1c0.08-0.27,0.12-0.56,0.13-0.84c0-0.86-0.59-1.18-2.16-1.18
			c-0.95,0-1.89,0.12-2.8,0.36l-0.48,0.14l-0.31,0.08l0.47-2.92c1.31-0.43,2.67-0.66,4.04-0.68c2.91,0,4.45,1.31,4.45,3.79
			c-0.03,0.86-0.12,1.72-0.28,2.56l-0.71,4.57l-0.1,0.82l-0.09,0.65l-0.07,0.45l-0.04,0.37V68.03z"/>
		<path id="Path_230" class="st4" d="M598.59,55c-0.11-0.02-0.22-0.04-0.33-0.04c-1.11,0-1.74,0.58-2.78,2.11l0.29-1.96h-3.06
			l-2.06,12.93h3.38c1.2-7.91,1.53-9.27,3.16-9.27c0.07-0.01,0.15-0.01,0.22,0c0.24-1.31,0.68-2.57,1.31-3.75l-0.1-0.03L598.59,55z"
			/>
	</g>
</g>
<g id="Group_401" transform="translate(167.215 6.183)">
	<path id="Path_231" class="st0" d="M488.75,35.25c-0.38,3.08-0.89,6.05-1.52,8.89c-3.15-1.37-6.55-2.04-9.98-1.96
		c-2.56,0.17-5.59,1.16-5.64,3.47c-0.05,2.56,4.15,4.08,6.5,5.2c4.22,2.02,8.77,4.71,9.1,10.19c0.21,3.73-1.21,7.37-3.89,9.98
		c-5.92,5.59-19.02,6.18-27.98,2.61c0.56-2.99,1.07-6.03,1.52-9.11c4.15,2.12,8.79,3.09,13.44,2.82c2.38-0.3,5.28-1.68,5.2-4.13
		c-0.1-2.97-5.65-4.74-8.46-6.3c-3.85-1.65-6.56-5.18-7.15-9.32c-0.09-2.83,0.84-5.6,2.61-7.81
		C467.14,34.05,479.01,32.01,488.75,35.25z"/>
	<path id="Path_232" class="st0" d="M437.07,75.22l6.8-40.78h11.14l-6.8,40.77L437.07,75.22z"/>
	<path id="Path_233" class="st0" d="M427.77,34.37c-3.84,9.04-7.11,18.62-11.06,27.54l-1.16-5.35c0-0.02,0-0.04,0-0.07l0.2,0.96
		c-0.91-2.86-2.33-5.54-4.18-7.91c-0.06-0.07-0.09-0.12-0.15-0.2c-0.33-0.42-0.68-0.82-1.02-1.23c-0.21-0.25-0.43-0.49-0.65-0.74
		c-2.74-2.96-5.91-5.49-9.41-7.51l9.89,35.25h11.92c5.62-13.76,11.67-27.07,17.36-40.77C435.58,34.37,431.67,34.37,427.77,34.37z"/>
	<path id="Path_234" class="st4" d="M406.77,34.38h-18.18v0.88c10.47,2.04,23.69,10.82,27.15,22.19l-3.9-18.99
		C411.52,35.95,409.28,34.15,406.77,34.38z"/>
	<path id="Path_235" class="st0" d="M526.25,75.36h-10.18c-0.65-1.96-0.85-4.36-1.53-6.29h-13.87l-2.6,6.29h-11.68l15.18-34.91
		c0.67-1.53,1.88-3.62,2.39-4.57c0.76-1.41,3.74-1.52,5.02-1.52h8.41L526.25,75.36z M509.37,45.66l-5.67,15.16h9.15L509.37,45.66z"
		/>
</g>
<g id="Group_402" transform="translate(295.438 5.492)">
	<path id="Path_236" class="st0" d="M704.9,68.2h-17.07l2.39-12.6h15.18l1.2-6.15h-15.25l2.13-11.11h16.12l1.2-6.21h-23.46
		l-8.03,42.28h24.41L704.9,68.2z"/>
	<path id="Path_237" class="st0" d="M762.79,38.53h11.79l1.26-6.39h-30.8l-1.26,6.39h11.73l-6.25,32.79
		c-10.48-0.07-20.96,0.65-31.33,2.18l3.22-17.08h14.79l1.19-6.15h-14.8l2.25-11.91h15.93l1.26-6.21h-23.34l-8.03,42.27h1.91
		c-11.39,1.78-22.49,5.07-33,9.8c57.11-14.05,96.29,0,96.29,0V72.96c-6.66-0.78-13-1.24-19.05-1.47L762.79,38.53z"/>
</g>
<g id="Group_403" transform="translate(29.995 4.572)">
	<path id="Path_238" class="st5" d="M108.63,30.05h-0.88c-6.27,0.07-9.54,2.67-10.23,7.66l-0.41,3.24c-0.37,1.8,0.07,3.67,1.21,5.11
		c1.93,1.85,4.55,2.8,7.21,2.61h0.86c6.13-0.07,9.4-2.59,10.17-7.23l0,0l0.05-0.33l0.41-3.23c0.39-1.86-0.07-3.79-1.24-5.29
		c-1.93-1.82-4.53-2.74-7.17-2.53 M111.49,40.81c-0.09,1.1-0.47,2.16-1.09,3.07c-0.88,1.08-2.22,1.68-3.61,1.61h-0.98
		c-1.3,0.15-2.58-0.43-3.34-1.51c-0.37-0.96-0.46-2.01-0.25-3.03l0.38-2.94c0.09-1.33,0.64-2.58,1.55-3.55
		c0.91-0.81,2.11-1.23,3.34-1.16h0.9c1.09-0.11,2.17,0.29,2.92,1.08c0.64,1.04,0.84,2.29,0.57,3.48L111.49,40.81z"/>
	<path id="Path_239" class="st5" d="M159.1,30.05h-0.89c-6.27,0.07-9.54,2.67-10.23,7.66l-0.43,3.24c-0.37,1.8,0.08,3.67,1.22,5.11
		c1.92,1.85,4.54,2.8,7.21,2.61h0.89c6.13-0.07,9.4-2.59,10.16-7.23l0,0l0.05-0.33l0.41-3.23c0.39-1.86-0.06-3.79-1.23-5.29
		c-1.93-1.82-4.54-2.74-7.19-2.53 M161.95,40.81c-0.09,1.1-0.47,2.16-1.1,3.07c-0.87,1.08-2.21,1.68-3.59,1.61h-0.98
		c-1.3,0.15-2.59-0.43-3.34-1.51c-0.37-0.96-0.46-2.01-0.25-3.03l0.39-2.94c0.09-1.33,0.64-2.58,1.55-3.55
		c0.91-0.81,2.11-1.23,3.34-1.16h0.91c1.09-0.11,2.16,0.29,2.91,1.08c0.64,1.04,0.84,2.29,0.57,3.48L161.95,40.81z"/>
	<path id="Path_240" class="st5" d="M213.11,32.59c-1.93-1.82-4.54-2.74-7.19-2.53h-0.86c-6.27,0.07-9.54,2.67-10.23,7.65
		l-0.41,3.23c-0.38,1.8,0.07,3.67,1.21,5.11c1.93,1.85,4.55,2.8,7.21,2.61h0.88c6.13-0.07,9.4-2.61,10.17-7.24l0,0l0.05-0.33
		l0.41-3.23C214.74,36.03,214.29,34.09,213.11,32.59 M208.83,40.81c-0.09,1.1-0.47,2.16-1.1,3.07c-0.88,1.08-2.22,1.68-3.61,1.61
		h-0.96c-1.3,0.14-2.58-0.43-3.34-1.51c-0.37-0.96-0.46-2.01-0.26-3.03l0.39-2.94c0.09-1.32,0.62-2.58,1.52-3.55
		c0.92-0.81,2.12-1.23,3.34-1.16h0.91c1.09-0.11,2.16,0.29,2.92,1.08c0.64,1.04,0.84,2.29,0.58,3.48L208.83,40.81z"/>
	<path id="Path_241" class="st5" d="M174.9,35.55c0.17,0,0.33,0.01,0.49,0.04c0.47,0.08,0.89,0.31,1.21,0.65
		c0.45,0.53,0.65,1.23,0.56,1.92l-0.65,5.41l0,0l-0.18,1.39v0.1h3.02c0.25,0,0.5-0.02,0.75-0.06c1.35-0.13,3.55-0.69,4.19-2.43
		l0.06-0.15c0.15-0.49,0.26-0.98,0.33-1.49l0.25-1.89l0,0l0,0l0.12-0.88c0.1-0.66,0.11-1.34,0.05-2.01
		c-0.21-1.74-2.29-2.29-3.59-2.44c-0.25-0.03-0.5-0.05-0.74-0.05h-5.34l0,0c-0.5,0-1-0.12-1.44-0.36c-0.68-0.57-1.04-1.43-0.98-2.31
		v-0.55h0.58h6.53h0.86c2.9-0.33,5.81,0.55,8.03,2.44c1.14,1.41,1.59,3.24,1.23,5.02l-0.19,1.16l-0.2,1.77
		c-0.04,0.24-0.07,0.65-0.11,0.88c-0.14,1.03-0.48,2.03-0.98,2.94c-0.51,0.9-1.24,1.65-2.11,2.21c-0.3,0.19-0.61,0.35-0.93,0.49
		c-0.75,0.34-1.55,0.6-2.36,0.75c-0.41,0.07-0.82,0.11-1.24,0.14c-0.61,0.05-1.36,0.07-2.13,0.08h-5.4h-0.73
		c-0.92,0.1-1.83-0.17-2.55-0.75c-0.08-0.09-0.14-0.19-0.2-0.3c-0.15-0.32-0.2-0.69-0.15-1.04l0.65-5l0.7-5.69L174.9,35.55z"/>
	<path id="Path_242" class="st5" d="M93.93,45.07h-7.14c-0.79,0.02-1.57-0.07-2.34-0.26c-0.52-0.12-0.99-0.39-1.36-0.78
		c-0.23-0.29-0.39-0.62-0.47-0.98c0-0.03,0-0.07,0-0.11c-0.03-0.17-0.06-0.35-0.07-0.53c-0.03-0.52-0.01-1.04,0.07-1.56l0.36-2.73
		c0.04-0.3,0.1-0.6,0.17-0.9c0.02-0.07,0.05-0.17,0.08-0.29c0-0.02,0.01-0.05,0.02-0.07c0.06-0.22,0.13-0.44,0.22-0.65
		c0.02-0.06,0.04-0.1,0.07-0.16c0.08-0.16,0.17-0.32,0.26-0.48c0.09-0.14,0.18-0.26,0.29-0.38c0.45-0.51,1.03-0.89,1.68-1.1
		c0.9-0.28,1.85-0.41,2.8-0.38h3.93l0,0c0.53,0,1.06-0.13,1.54-0.37c0.38-0.24,0.71-0.55,0.96-0.93c0.04-0.06,0.07-0.14,0.11-0.2
		c0.22-0.37,0.38-0.77,0.5-1.19l0.16-0.56H87.8c-0.82,0.01-1.65,0.07-2.46,0.2c-3.92,0.21-7.08,3.28-7.4,7.19l-0.4,3.12
		c-0.36,1.74,0.07,3.54,1.17,4.93c1.69,1.64,3.98,2.52,6.34,2.45h5.4c0.6,0.01,1.19-0.08,1.75-0.29c0.49-0.3,0.88-0.73,1.14-1.24
		c0.07-0.12,0.14-0.26,0.2-0.4C93.71,45.99,93.84,45.54,93.93,45.07z"/>
	<path id="Path_243" class="st5" d="M125.99,45.48l-0.03,0.22c-0.1,0.75-0.46,1.43-1.03,1.93c-0.52,0.46-1.18,0.71-1.87,0.71h-2.66
		l0.25-2.04l0.1-0.81l1.84-15.03h2.19c1.05-0.14,2.1,0.26,2.79,1.07l4.85,7.73l6.88-7.8c0.79-0.74,1.86-1.11,2.94-1.01h2.29
		l-1.87,15.03l-0.03,0.22c-0.11,0.74-0.47,1.42-1.04,1.92c-0.52,0.45-1.18,0.7-1.87,0.7h-2.56l1.31-10.42l-5.41,6.83
		c-0.3,0.41-0.76,0.68-1.27,0.75h-0.04c-0.5-0.08-0.93-0.39-1.16-0.84l-3.61-6.77L125.99,45.48"/>
</g>
<g id="Group_404" transform="translate(29.344 12.663)">
	<path id="Path_244" class="st0" d="M80.93,50.51c2.26-0.47,4.56-0.69,6.86-0.65c2.46-0.13,4.91,0.49,7.01,1.76
		c1.88,1.23,2.97,3.36,2.86,5.6c0.04,2.9-1.28,5.64-3.56,7.42c-2.48,1.72-5.45,2.59-8.47,2.47c-0.94,0-1.72-0.12-2.31-0.16
		l-1.8,9.48H76L80.93,50.51z M84.18,62.3c0.72,0.14,1.46,0.21,2.2,0.2c2.8,0.29,5.3-1.75,5.58-4.54c0.01-0.09,0.02-0.17,0.02-0.26
		c0-2.51-1.8-3.33-4-3.33c-0.77-0.01-1.55,0.04-2.31,0.15L84.18,62.3z"/>
	<path id="Path_245" class="st0" d="M105.98,76.84c-4.18,0.31-7.82-2.82-8.14-7c-0.02-0.3-0.03-0.61-0.01-0.91
		c-0.32-6.35,4.57-11.76,10.92-12.07c0.17-0.01,0.34-0.01,0.51-0.01c4.2-0.29,7.85,2.88,8.14,7.08c0.02,0.28,0.02,0.55,0.01,0.83
		c0.36,6.31-4.46,11.71-10.76,12.07c-0.21,0.01-0.43,0.02-0.64,0.02H105.98z M106.72,72.53c3.06,0,4.83-4.51,4.83-7.76
		c0-1.8-0.78-3.64-3.02-3.64c-3.25,0-4.9,4.7-4.9,7.68c0,2.24,1.14,3.73,3.06,3.73h0.03L106.72,72.53z"/>
	<path id="Path_246" class="st0" d="M119.86,71.4c1.56,0.79,3.27,1.24,5.02,1.33c1.57,0,2.39-0.78,2.39-1.73s-0.62-1.6-2.39-2.46
		c-2.22-0.77-3.8-2.76-4.04-5.1c0-4,3.49-6.61,8.42-6.61c1.69-0.06,3.37,0.27,4.9,0.98l-1.33,4c-1.21-0.54-2.52-0.83-3.84-0.84
		c-1.49,0-2.47,0.63-2.47,1.69c0,0.78,0.78,1.45,2.31,2.16c2.35,0.78,4.03,2.85,4.3,5.3c0,4.39-3.72,6.78-8.82,6.74
		c-2.05,0.04-4.07-0.47-5.84-1.49L119.86,71.4z"/>
	<path id="Path_247" class="st0" d="M135.47,76.41l3.64-19.16h5.61l-3.59,19.16H135.47z M142.6,54.75
		c-1.53,0.05-2.81-1.15-2.87-2.68c0-0.09,0-0.17,0-0.26c-0.02-1.87,1.48-3.39,3.34-3.41c0.04,0,0.07,0,0.11,0
		c1.55-0.11,2.9,1.06,3.01,2.61c0.01,0.11,0.01,0.22,0,0.33c0.04,1.85-1.43,3.38-3.28,3.42c-0.1,0-0.19,0-0.29-0.01H142.6z"/>
	<path id="Path_248" class="st0" d="M156.67,52.08l-0.98,5.17h4.12l-0.86,4.31h-4.08l-1.31,6.47c-0.18,0.8-0.29,1.61-0.33,2.42
		c0,0.94,0.39,1.61,1.63,1.61c0.51,0.01,1.02-0.01,1.53-0.08l-0.62,4.43c-1.09,0.31-2.21,0.45-3.34,0.43
		c-3.41,0-5.01-1.72-5.01-4.15c0.01-1.19,0.15-2.37,0.43-3.53l1.44-7.59h-2.4l0.78-4.31h2.49l0.71-3.59L156.67,52.08z"/>
	<path id="Path_249" class="st0" d="M159.5,76.41l3.64-19.16h5.6l-3.59,19.16H159.5z M166.64,54.75c-1.53,0.05-2.81-1.15-2.87-2.68
		c0-0.09,0-0.17,0-0.26c-0.02-1.86,1.47-3.39,3.33-3.42c0.04,0,0.08,0,0.12,0c1.55-0.11,2.9,1.06,3.01,2.61
		c0.01,0.11,0.01,0.22,0,0.33c0.04,1.85-1.43,3.38-3.28,3.42c-0.1,0-0.19,0-0.29-0.01H166.64z"/>
	<path id="Path_250" class="st0" d="M176.99,57.25l0.9,8.38c0.2,2.36,0.39,3.8,0.51,5.23h0.11c0.51-1.37,1.1-2.82,2.16-5.18
		l3.84-8.42h6.31l-10.66,19.16h-5.76l-3.21-19.16L176.99,57.25z"/>
	<path id="Path_251" class="st0" d="M205.56,75.32c-2.23,1.04-4.67,1.57-7.13,1.53c-4.08,0.5-7.79-2.4-8.29-6.48
		c-0.07-0.54-0.07-1.08-0.02-1.63c-0.22-6.35,4.74-11.69,11.1-11.91c0.02,0,0.05,0,0.07,0c3.24-0.42,6.2,1.87,6.61,5.11
		c0.03,0.22,0.04,0.43,0.05,0.65c0,4.86-4.74,6.62-12.42,6.43c0.01,0.69,0.22,1.37,0.59,1.96c0.92,1.05,2.29,1.61,3.69,1.49
		c1.86,0.01,3.7-0.41,5.37-1.22L205.56,75.32z M202.66,62.54c0-0.94-0.78-1.6-2.08-1.6c-2.24,0.1-4.11,1.74-4.51,3.95
		c4.39,0.04,6.59-0.55,6.59-2.32V62.54z"/>
	<path id="Path_252" class="st0" d="M217.8,70.3c1.89,1.1,4.04,1.69,6.23,1.69c2.15,0,4.15-1.02,4.15-3.06
		c0-1.53-1.14-2.47-3.57-3.76c-3-1.11-5.11-3.83-5.45-7.01c0-5.34,4.63-8.58,10.39-8.58c2.15-0.09,4.28,0.36,6.21,1.31l-1.76,4.7
		c-1.52-0.77-3.2-1.16-4.9-1.14c-2.63,0-4,1.31-4,2.74c0,1.57,1.61,2.51,3.84,3.76c2.98,1.09,5.04,3.84,5.23,7.01
		c0,5.88-4.86,8.9-10.69,8.9c-2.63,0.1-5.24-0.54-7.51-1.87L217.8,70.3z"/>
	<path id="Path_253" class="st0" d="M237.8,70.3c1.89,1.11,4.04,1.69,6.23,1.69c2.16,0,4.15-1.02,4.15-3.06
		c0-1.53-1.14-2.47-3.57-3.76c-3-1.11-5.11-3.83-5.45-7.01c0-5.34,4.62-8.58,10.39-8.58c2.15-0.09,4.28,0.36,6.21,1.31l-1.76,4.7
		c-1.52-0.77-3.2-1.16-4.9-1.14c-2.61,0-4,1.31-4,2.74c0,1.57,1.6,2.51,3.84,3.76c2.98,1.09,5.02,3.85,5.21,7.01
		c0,5.88-4.85,8.9-10.69,8.9c-2.63,0.1-5.24-0.54-7.51-1.87L237.8,70.3z"/>
	<path id="Path_254" class="st0" d="M261.64,50h5.65l-4.06,21.47h10.13l-0.94,4.94h-15.79L261.64,50z"/>
</g>
<g id="Group_405" transform="translate(5.536 6.737)">
	<path id="Path_255" class="st6" d="M36.56,49.52V36.08h10.06v-1.12H35.44V48.4H22.01v11.17h1.13V49.52H36.56z"/>
	<rect id="Rectangle_154" x="46.62" y="48.4" class="st6" width="13.43" height="1.12"/>
	<rect id="Rectangle_155" x="35.44" y="59.57" class="st6" width="1.12" height="13.43"/>
	<path id="Path_256" class="st6" d="M46.62,59.57h13.43V49.52H46.62V36.08H36.56v13.44H23.13v10.05h13.43V73h10.06V59.57z"/>
	<rect id="Rectangle_156" x="46.62" y="58.45" class="st6" width="13.43" height="1.12"/>
	<rect id="Rectangle_157" x="23.13" y="58.45" class="st6" width="13.42" height="1.12"/>
	<rect id="Rectangle_158" x="36.56" y="71.88" class="st6" width="10.06" height="1.12"/>
	<rect id="Rectangle_159" x="58.93" y="49.52" class="st6" width="1.12" height="10.05"/>
	<rect id="Rectangle_160" x="45.49" y="58.45" class="st6" width="1.13" height="14.55"/>
	<rect id="Rectangle_161" x="45.49" y="36.08" class="st6" width="1.13" height="13.43"/>
</g>
<circle id="Ellipse_21" class="st1" cx="48.21" cy="60.72" r="38.76"/>
<path class="st1" d="M361.37,32.12c-2.48-0.7-4.57-1.63-6.74-1.85c-8.87-0.88-15.27,5.34-17.46,13.23
	c-3.96,14.27-0.21,27.07,9.84,37.66c10.69,11.25,26.25,11.84,37.32,1.48c9.61-8.99,13.8-20.3,11.39-33.5
	c-1.75-9.57-7.7-15.48-16.24-16.68c-6.23-0.87-12.13,1.34-14.14,5.93c-5.07,11.61-5.77,23.34-0.03,35.02
	c0.13,0.27,0.48,0.43,1.25,1.09c-0.34-1.48-0.46-2.33-0.74-3.14c-1.55-4.53-2.14-9.17-1.89-13.94c0.29-5.74,1.61-11.24,3.97-16.46
	c1.25-2.76,3.2-4.64,6.46-5.11c7.79-1.13,13.76,2.63,16.35,10.54c4.24,12.96-2.09,29.07-14.05,35.69c-5.14,2.84-10.44,3.31-16,1.18
	c-16.73-6.39-21.13-28.68-16.06-40.1c1.2-2.71,3.17-4.83,6.01-5.95c3.15-1.24,4.67-0.78,6.47,2.09c1.16,1.84,2.77,2.41,4.74,1.93
	c1.94-0.47,2.57-1.98,2.59-3.83c0.04-4.23,2.33-6.82,6.14-8.28c1.05-0.4,2.16-0.66,3.18-1.11c1.95-0.86,2.69-2.94,1.77-4.79
	c-0.89-1.79-2.41-2.24-4.46-1.22C366.54,24.2,362.5,26.89,361.37,32.12z"/>
<path class="st7" d="M361.37,32.12c1.13-5.23,5.16-7.91,9.66-10.14c2.04-1.01,3.57-0.56,4.46,1.22c0.92,1.85,0.19,3.94-1.77,4.79
	c-1.03,0.45-2.13,0.71-3.18,1.11c-3.81,1.45-6.1,4.05-6.14,8.28c-0.02,1.86-0.65,3.36-2.59,3.83c-1.97,0.48-3.58-0.09-4.74-1.93
	c-1.8-2.86-3.32-3.33-6.47-2.09c-2.84,1.12-4.81,3.24-6.01,5.95c-5.07,11.42-0.67,33.71,16.06,40.1c5.56,2.12,10.86,1.66,16-1.18
	c11.96-6.62,18.29-22.73,14.05-35.69c-2.59-7.91-8.55-11.67-16.35-10.54c-3.26,0.47-5.21,2.36-6.46,5.11
	c-2.37,5.23-3.68,10.72-3.97,16.46c-0.24,4.77,0.34,9.42,1.89,13.94c0.28,0.8,0.4,1.66,0.74,3.14c-0.77-0.66-1.12-0.82-1.25-1.09
	c-5.74-11.67-5.04-23.41,0.03-35.02c2.01-4.59,7.91-6.81,14.14-5.93c8.54,1.2,14.49,7.11,16.24,16.68
	c2.41,13.2-1.78,24.51-11.39,33.5c-11.07,10.36-26.63,9.77-37.32-1.48c-10.05-10.58-13.81-23.39-9.84-37.66
	c2.19-7.89,8.59-14.1,17.46-13.23C356.8,30.48,358.9,31.42,361.37,32.12z"/>
<g id="Group_406" transform="translate(262.163 1.461)">
	<path id="Path_257" class="st0" d="M605.77,95.2h-0.25c0-0.13-0.03-0.33-0.03-0.35c0-0.02,0-0.19-0.19-0.19h-0.38v0.54h-0.16v-1.26
		h0.54c0.22,0,0.41,0.07,0.41,0.28c0.01,0.12-0.04,0.24-0.13,0.33c0.08,0.06,0.12,0.15,0.13,0.25v0.22c0,0.07,0,0.07,0.06,0.07
		L605.77,95.2L605.77,95.2z M605.52,94.28c0-0.16-0.09-0.16-0.16-0.16h-0.44v0.35h0.38C605.43,94.47,605.52,94.41,605.52,94.28
		 M606.57,94.53c-0.01-0.75-0.63-1.34-1.37-1.33c-0.01,0-0.01,0-0.02,0c-0.73,0-1.32,0.6-1.33,1.33c-0.04,0.75,0.54,1.39,1.29,1.42
		c0.75,0.04,1.39-0.54,1.42-1.29C606.57,94.62,606.57,94.58,606.57,94.53 M606.38,94.53c0,0.63-0.52,1.14-1.16,1.14
		c-0.01,0-0.03,0-0.04,0c-0.61,0.02-1.12-0.45-1.14-1.05c0-0.03,0-0.06,0-0.08c0-0.63,0.51-1.14,1.14-1.14c0,0,0,0,0,0
		C605.82,93.39,606.35,93.89,606.38,94.53"/>
	<path id="Path_258" class="st0" d="M680.92,70.05c0,1.81-1.17,2.65-3.22,2.65h-3.92v-1.81h3.92c0.28,0.03,0.56-0.04,0.79-0.19
		c0.15-0.14,0.24-0.33,0.25-0.54c0-0.23-0.09-0.44-0.25-0.6c-0.21-0.16-0.47-0.23-0.73-0.19c-1.86-0.07-4.23,0.07-4.23-2.63
		c0-1.41,1.14-2.55,2.55-2.55c0.12,0,0.24,0.01,0.36,0.03h4.04v1.8h-3.73c-0.27-0.04-0.54,0-0.78,0.13c-0.2,0.16-0.32,0.4-0.33,0.65
		c-0.01,0.27,0.16,0.51,0.41,0.6c0.26,0.08,0.52,0.12,0.79,0.13h1.1c0.84-0.07,1.68,0.17,2.37,0.65c0.41,0.52,0.63,1.18,0.6,1.85
		 M672.39,68.19c-0.69-0.49-1.53-0.72-2.37-0.65h-1.1c-0.27-0.01-0.53-0.05-0.79-0.13c-0.25-0.09-0.42-0.33-0.41-0.6
		c-0.02-0.26,0.11-0.51,0.33-0.65c0.24-0.12,0.52-0.17,0.79-0.13h3.73v-1.81h-4.05c-2.18,0-2.9,1.33-2.9,2.53
		c0,2.69,2.37,2.56,4.25,2.61c0.26-0.03,0.52,0.04,0.73,0.2c0.17,0.16,0.26,0.38,0.25,0.6c-0.01,0.21-0.1,0.4-0.25,0.54
		c-0.24,0.15-0.51,0.21-0.79,0.19h-3.92v1.8h3.92c2.06,0,3.22-0.85,3.22-2.66c0.03-0.67-0.19-1.32-0.6-1.84 M664.63,70.96h-4.76
		v-1.7h4.68v-1.71h-4.68V66h4.76v-1.77h-6.75v8.5h6.75V70.96z M655.71,64.63c-0.79-0.34-1.65-0.48-2.5-0.41h-4.64v8.5h2.06v-3.1
		h2.18c0.73,0,1.14,0.07,1.45,0.38c0.29,0.52,0.41,1.12,0.35,1.71v1.01h2.02v-1.63c0.05-0.54-0.06-1.08-0.33-1.56
		c-0.26-0.34-0.63-0.6-1.04-0.73c0.91-0.37,1.49-1.27,1.45-2.25c0.09-0.77-0.3-1.52-0.98-1.89 M644.21,64.23h-6.47l-2.61,2.79
		l-2.47-2.79h-8.17v8.5h8.05l2.59-2.79l2.49,2.79h3.92v-2.85h2.56c1.74,0,3.51-0.48,3.51-2.85c0-2.31-1.8-2.79-3.38-2.79
		 M654.09,67.77c-0.31,0.11-0.65,0.15-0.98,0.13l-2.46,0.07v-1.93h2.46c0.34-0.04,0.67,0.02,0.98,0.16
		c0.27,0.14,0.43,0.43,0.41,0.73C654.51,67.25,654.36,67.57,654.09,67.77 M644.24,68.18h-2.68v-2.15h2.68c0.73,0,1.2,0.29,1.2,1.02
		c0.04,0.59-0.41,1.1-1,1.14C644.37,68.19,644.3,68.18,644.24,68.18 M636.44,68.5l3.13-3.33v6.84L636.44,68.5z M631.51,71h-5.02
		v-1.74h4.48v-1.71h-4.48V66h5.08l2.24,2.47L631.51,71z M675.34,58.12h-2.91l-3.82-6.36v6.36h-4.1l-0.79-1.87h-4.23l-0.79,1.87
		h-2.37c-1.07,0.06-2.13-0.28-2.97-0.95c-0.75-0.9-1.12-2.06-1.04-3.23c-0.1-1.21,0.3-2.41,1.1-3.32c0.85-0.74,1.97-1.09,3.09-0.98
		h1.92v1.83h-1.92c-0.57-0.05-1.13,0.12-1.58,0.48c-0.42,0.55-0.61,1.24-0.54,1.93c-0.07,0.72,0.12,1.43,0.54,2.02
		c0.4,0.3,0.89,0.44,1.39,0.41h0.91l2.91-6.68h3l3.41,8v-8.02h3.13l3.57,5.88v-5.88h2.08L675.34,58.12L675.34,58.12z M651.28,49.62
		h-2.05v8.48h2.05V49.62z M646.99,49.99c-0.76-0.34-1.6-0.47-2.43-0.38h-4.64v8.48h1.99v-3.06h2.18c0.53-0.07,1.07,0.05,1.52,0.35
		c0.26,0.5,0.36,1.07,0.29,1.63v1.08h2.08v-1.68c0.06-0.54-0.07-1.08-0.38-1.52c-0.26-0.32-0.6-0.57-0.98-0.73
		c0.9-0.38,1.47-1.27,1.45-2.25C648.11,51.11,647.69,50.36,646.99,49.99 M638.47,56.34h-4.74v-1.71h4.68v-1.75h-4.68v-1.52h4.74
		v-1.75h-6.79v8.48h6.79V56.34z M630.16,49.61h-3.31l-2.49,5.76l-2.66-5.76h-3.25v8l-3.47-7.99h-2.99l-3.63,8.48h2.18l0.76-1.87
		h4.26l0.75,1.87h4.14v-6.65l2.97,6.65h1.73l2.97-6.65v6.65h2.05L630.16,49.61L630.16,49.61z M662.96,54.41l-1.39-3.35l-1.39,3.35
		H662.96z M645.41,53.05c-0.31,0.16-0.66,0.23-1.01,0.19h-2.5v-1.86h2.5c0.34-0.03,0.69,0.02,1.01,0.13
		c0.26,0.17,0.41,0.47,0.38,0.78C645.82,52.6,645.68,52.9,645.41,53.05 M612.01,54.42l1.42-3.35l1.39,3.35H612.01z M680.42,23
		h-72.14v30.56l2.47-5.64h5.26l0.73,1.4v-1.4h6.16l1.39,3.01l1.36-3.01h19.64c0.82-0.06,1.63,0.17,2.29,0.65v-0.65h5.4v0.65
		c1.05-0.5,2.21-0.73,3.38-0.65h7.8l0.73,1.4v-1.4h5.74l0.86,1.4v-1.4h5.62v11.87h-5.65l-1.11-1.81v1.81h-7.07l-0.79-1.93h-1.73
		l-0.78,1.93h-3.7c-1.13,0.02-2.24-0.23-3.25-0.73v0.73h-8.78v-2.72c0-0.38-0.07-0.44-0.33-0.44h-0.28v3.17h-16.93v-1.52l-0.6,1.52
		h-3.57l-0.6-1.45v1.45h-6.86l-0.73-1.93h-1.74l-0.78,1.93h-3.51v35.81h72.14V73.88c-0.93,0.37-1.93,0.56-2.94,0.54h-5.27v-0.73
		c-0.81,0.51-1.76,0.76-2.72,0.73h-16.57v-2.72c0-0.38-0.07-0.38-0.38-0.38h-0.28v3.1h-5.46v-3.23c-0.9,0.36-1.88,0.52-2.85,0.44
		h-0.6v2.78h-6.66l-1.57-1.84l-1.74,1.84h-10.7v-11.9h10.89l1.56,1.84l1.7-1.84h7.32c1-0.08,2,0.18,2.84,0.73v-0.73h6.53
		c0.98-0.02,1.94,0.23,2.78,0.73v-0.73h9.85v0.73c0.73-0.5,1.61-0.76,2.5-0.73h5.5v0.73c0.76-0.5,1.65-0.75,2.56-0.73h3.72V23
		H680.42z"/>
</g>
<g id="Group_407" transform="translate(5.88 6.397)">
	<path id="Path_259" class="st8" d="M37.34,48.75V35.31H47.4v-1.12H36.22v13.43H22.79V58.8h1.13V48.75H37.34z"/>
	<rect id="Rectangle_163" x="47.4" y="47.63" class="st8" width="13.43" height="1.12"/>
	<rect id="Rectangle_164" x="36.22" y="58.8" class="st8" width="1.12" height="13.43"/>
	<path id="Path_260" class="st9" d="M47.4,58.8h13.43V48.75H47.4V35.31H37.34v13.44H23.91V58.8h13.43v13.43H47.4V58.8z"/>
	<rect id="Rectangle_165" x="47.4" y="57.68" class="st2" width="13.43" height="1.12"/>
	<rect id="Rectangle_166" x="23.91" y="57.68" class="st2" width="13.42" height="1.12"/>
	<rect id="Rectangle_167" x="37.34" y="71.11" class="st2" width="10.06" height="1.12"/>
	<rect id="Rectangle_168" x="59.71" y="48.75" class="st2" width="1.12" height="10.05"/>
	<rect id="Rectangle_169" x="46.27" y="57.68" class="st2" width="1.13" height="14.55"/>
	<rect id="Rectangle_170" x="46.27" y="35.31" class="st2" width="1.13" height="13.43"/>
</g>
<g class="st10">
	<path class="st11" d="M427.54,40.29c0.52,0.61,0.92,1.33,1.2,2.14c0.29,0.81,0.43,1.74,0.43,2.78c0,1.03-0.17,1.96-0.51,2.81
		s-0.79,1.57-1.36,2.17c-0.59,0.61-1.24,1.07-1.96,1.4c-0.72,0.32-1.48,0.49-2.29,0.49c-0.78,0-1.42-0.09-1.92-0.26
		c-0.5-0.18-0.91-0.38-1.22-0.62h-0.11v3.91c0,0.32,0.06,0.58,0.18,0.79c0.12,0.21,0.31,0.37,0.57,0.46
		c0.21,0.08,0.51,0.16,0.9,0.23c0.39,0.07,0.71,0.12,0.97,0.13v0.87h-7.25V56.7c0.27-0.02,0.54-0.04,0.79-0.07s0.48-0.07,0.68-0.13
		c0.26-0.09,0.45-0.24,0.55-0.46c0.11-0.22,0.16-0.48,0.16-0.78V41.46c0-0.26-0.07-0.52-0.2-0.76c-0.13-0.25-0.3-0.44-0.51-0.59
		c-0.16-0.1-0.38-0.19-0.66-0.24s-0.55-0.09-0.82-0.11v-0.87l4.42-0.29l0.18,0.16v1.46l0.11,0.03c0.46-0.53,1.02-0.97,1.7-1.32
		c0.68-0.35,1.35-0.53,2.01-0.53c0.81,0,1.55,0.17,2.22,0.51S427.06,39.71,427.54,40.29z M425.4,49.62c0.35-0.54,0.61-1.18,0.78-1.9
		c0.17-0.72,0.25-1.52,0.25-2.41c0-0.65-0.07-1.31-0.21-1.99c-0.14-0.68-0.36-1.26-0.66-1.76c-0.3-0.51-0.69-0.92-1.17-1.24
		s-1.06-0.47-1.74-0.47c-0.65,0-1.2,0.14-1.66,0.43c-0.46,0.29-0.85,0.63-1.18,1.02v7.67c0.08,0.24,0.21,0.48,0.39,0.74
		c0.18,0.25,0.38,0.47,0.6,0.66c0.27,0.22,0.57,0.4,0.88,0.53c0.32,0.14,0.7,0.2,1.16,0.2c0.49,0,0.97-0.13,1.42-0.39
		C424.71,50.46,425.09,50.09,425.4,49.62z"/>
	<path class="st11" d="M442.61,48.67c-0.54,1.04-1.27,1.86-2.19,2.47s-1.96,0.92-3.15,0.92c-1.04,0-1.96-0.18-2.74-0.55
		c-0.79-0.37-1.43-0.87-1.94-1.5c-0.51-0.63-0.89-1.37-1.14-2.21s-0.38-1.73-0.38-2.67c0-0.84,0.13-1.67,0.4-2.48
		c0.27-0.81,0.66-1.54,1.18-2.19c0.5-0.62,1.12-1.13,1.86-1.51c0.74-0.38,1.57-0.57,2.49-0.57c0.95,0,1.76,0.15,2.44,0.45
		s1.22,0.71,1.65,1.22c0.4,0.49,0.7,1.07,0.9,1.74c0.2,0.67,0.3,1.39,0.3,2.17v0.87h-8.6c0,0.85,0.08,1.63,0.24,2.32
		c0.16,0.69,0.42,1.31,0.77,1.83c0.34,0.51,0.79,0.91,1.34,1.21c0.55,0.29,1.21,0.44,1.97,0.44c0.78,0,1.45-0.18,2.02-0.55
		s1.11-1.03,1.64-1.98L442.61,48.67z M439.7,43.72c0-0.49-0.04-1.01-0.12-1.57c-0.08-0.56-0.22-1.03-0.4-1.4
		c-0.2-0.4-0.48-0.73-0.83-0.98c-0.35-0.25-0.8-0.38-1.36-0.38c-0.92,0-1.69,0.38-2.3,1.15c-0.61,0.77-0.94,1.83-0.99,3.2H439.7z"/>
	<path class="st11" d="M456.41,51.49c-0.41,0.15-0.77,0.27-1.09,0.36s-0.66,0.14-1.06,0.14c-0.68,0-1.23-0.16-1.64-0.48
		c-0.41-0.32-0.67-0.79-0.78-1.4h-0.08c-0.57,0.63-1.18,1.11-1.84,1.45c-0.65,0.33-1.44,0.5-2.36,0.5c-0.97,0-1.77-0.3-2.4-0.9
		s-0.94-1.38-0.94-2.34c0-0.5,0.07-0.95,0.21-1.34c0.14-0.4,0.35-0.75,0.63-1.07c0.22-0.26,0.51-0.5,0.87-0.7
		c0.36-0.21,0.7-0.37,1.01-0.49c0.39-0.15,1.2-0.43,2.4-0.83c1.21-0.4,2.02-0.72,2.44-0.95v-1.3c0-0.11-0.02-0.33-0.07-0.66
		s-0.15-0.63-0.31-0.92c-0.18-0.32-0.42-0.61-0.74-0.85c-0.32-0.24-0.77-0.36-1.36-0.36c-0.4,0-0.78,0.07-1.13,0.2
		c-0.35,0.14-0.59,0.28-0.73,0.43c0,0.18,0.04,0.43,0.12,0.78s0.12,0.66,0.12,0.95c0,0.31-0.14,0.59-0.41,0.84
		c-0.28,0.25-0.66,0.38-1.15,0.38c-0.44,0-0.76-0.16-0.97-0.47c-0.21-0.31-0.31-0.66-0.31-1.05c0-0.4,0.14-0.79,0.43-1.16
		c0.28-0.37,0.66-0.7,1.11-0.99c0.4-0.25,0.87-0.45,1.44-0.62c0.56-0.17,1.11-0.26,1.65-0.26c0.74,0,1.38,0.05,1.93,0.15
		c0.55,0.1,1.05,0.32,1.49,0.65c0.45,0.32,0.79,0.77,1.02,1.32c0.23,0.56,0.35,1.27,0.35,2.15c0,1.25-0.01,2.37-0.04,3.34
		c-0.03,0.97-0.04,2.03-0.04,3.18c0,0.34,0.06,0.61,0.18,0.82c0.12,0.2,0.3,0.37,0.55,0.51c0.13,0.08,0.34,0.12,0.63,0.13
		s0.58,0.01,0.88,0.01V51.49z M451.81,44.54c-0.75,0.22-1.4,0.44-1.96,0.65c-0.56,0.21-1.08,0.47-1.57,0.79
		c-0.44,0.3-0.79,0.65-1.04,1.06c-0.25,0.41-0.38,0.9-0.38,1.46c0,0.73,0.19,1.27,0.57,1.61c0.38,0.34,0.87,0.51,1.45,0.51
		c0.62,0,1.17-0.15,1.65-0.46c0.47-0.3,0.87-0.66,1.2-1.08L451.81,44.54z"/>
	<path class="st11" d="M463.7,52.07c-1.88,0-3.35-0.62-4.41-1.87c-1.06-1.25-1.59-2.92-1.59-5.01c0-0.91,0.14-1.77,0.43-2.56
		c0.29-0.79,0.7-1.52,1.24-2.17c0.52-0.62,1.17-1.13,1.95-1.51c0.78-0.38,1.63-0.57,2.55-0.57c1.27,0,2.31,0.31,3.11,0.91
		c0.8,0.61,1.2,1.44,1.2,2.49c0,0.44-0.1,0.83-0.32,1.16c-0.21,0.34-0.56,0.51-1.04,0.51c-0.52,0-0.92-0.13-1.2-0.39
		c-0.29-0.26-0.43-0.56-0.43-0.88c0-0.39,0.05-0.8,0.16-1.21c0.1-0.42,0.17-0.72,0.18-0.91c-0.16-0.27-0.39-0.45-0.7-0.54
		c-0.31-0.09-0.65-0.14-1-0.14c-0.42,0-0.82,0.09-1.2,0.27c-0.38,0.18-0.75,0.51-1.11,0.99c-0.32,0.44-0.59,1.03-0.79,1.78
		c-0.2,0.75-0.3,1.64-0.3,2.67c0,1.63,0.36,2.96,1.08,3.99c0.72,1.03,1.67,1.55,2.85,1.55c0.85,0,1.56-0.21,2.14-0.62
		s1.11-1.04,1.6-1.87l0.84,0.55c-0.58,1.04-1.34,1.86-2.29,2.46C465.69,51.76,464.71,52.07,463.7,52.07z"/>
	<path class="st11" d="M484.06,51.72h-6.38v-0.87c0.2-0.02,0.43-0.04,0.67-0.05s0.45-0.05,0.61-0.11c0.25-0.08,0.43-0.22,0.55-0.41
		c0.12-0.2,0.18-0.45,0.18-0.77v-6.67c0-0.92-0.22-1.63-0.65-2.13c-0.44-0.5-0.97-0.75-1.59-0.75c-0.46,0-0.88,0.07-1.27,0.22
		c-0.39,0.14-0.74,0.32-1.05,0.53c-0.3,0.22-0.53,0.44-0.69,0.66c-0.16,0.22-0.28,0.4-0.37,0.55v7.46c0,0.3,0.06,0.54,0.18,0.74
		c0.12,0.19,0.3,0.34,0.55,0.45c0.19,0.09,0.39,0.15,0.6,0.2s0.43,0.07,0.68,0.09v0.87h-6.36v-0.87c0.2-0.02,0.41-0.04,0.63-0.06
		c0.22-0.02,0.4-0.06,0.55-0.1c0.24-0.08,0.43-0.22,0.55-0.42c0.12-0.2,0.18-0.45,0.18-0.77V34.39c0-0.3-0.07-0.6-0.2-0.9
		c-0.14-0.3-0.31-0.52-0.53-0.67c-0.16-0.11-0.44-0.2-0.84-0.24s-0.72-0.08-0.97-0.1v-0.84l4.8-0.29l0.18,0.2v9.06h0.05
		c0.29-0.29,0.55-0.55,0.79-0.77c0.24-0.22,0.55-0.46,0.94-0.7c0.33-0.21,0.73-0.39,1.18-0.53c0.45-0.14,0.96-0.21,1.52-0.21
		c1.16,0,2.05,0.37,2.68,1.1c0.62,0.73,0.94,1.79,0.94,3.17v6.75c0,0.31,0.05,0.55,0.17,0.74c0.11,0.19,0.29,0.34,0.55,0.44
		c0.2,0.08,0.39,0.14,0.55,0.18c0.16,0.04,0.38,0.07,0.64,0.09V51.72z"/>
</g>
<g class="st10">
	<path class="st12" d="M427.54,68.06c0.52,0.61,0.92,1.33,1.2,2.14s0.43,1.74,0.43,2.78c0,1.03-0.17,1.96-0.51,2.81
		s-0.79,1.57-1.36,2.17c-0.59,0.61-1.24,1.07-1.96,1.4c-0.72,0.32-1.48,0.49-2.29,0.49c-0.78,0-1.42-0.09-1.92-0.26
		s-0.91-0.38-1.22-0.62h-0.11v3.91c0,0.32,0.06,0.58,0.18,0.79c0.12,0.21,0.31,0.37,0.57,0.46c0.21,0.08,0.51,0.16,0.9,0.23
		c0.39,0.07,0.71,0.12,0.97,0.12v0.87h-7.25v-0.87c0.27-0.02,0.54-0.04,0.79-0.07s0.48-0.07,0.68-0.13
		c0.26-0.09,0.45-0.24,0.55-0.46s0.16-0.48,0.16-0.78V69.23c0-0.26-0.07-0.52-0.2-0.76c-0.13-0.25-0.3-0.44-0.51-0.59
		c-0.16-0.1-0.38-0.19-0.66-0.24s-0.55-0.09-0.82-0.11v-0.87l4.42-0.29l0.18,0.16v1.46l0.11,0.03c0.46-0.53,1.02-0.97,1.7-1.32
		c0.68-0.35,1.35-0.53,2.01-0.53c0.81,0,1.55,0.17,2.22,0.51S427.06,67.48,427.54,68.06z M425.4,77.39c0.35-0.54,0.61-1.18,0.78-1.9
		s0.25-1.52,0.25-2.41c0-0.65-0.07-1.31-0.21-1.99c-0.14-0.68-0.36-1.26-0.66-1.76c-0.3-0.51-0.69-0.92-1.17-1.24
		c-0.48-0.32-1.06-0.47-1.74-0.47c-0.65,0-1.2,0.14-1.66,0.43c-0.46,0.29-0.85,0.62-1.18,1.02v7.67c0.08,0.24,0.21,0.48,0.39,0.74
		c0.18,0.25,0.38,0.47,0.6,0.66c0.27,0.22,0.57,0.4,0.88,0.53s0.7,0.2,1.16,0.2c0.49,0,0.97-0.13,1.42-0.39
		C424.71,78.23,425.09,77.86,425.4,77.39z"/>
	<path class="st12" d="M443.38,79.26c-0.41,0.15-0.77,0.27-1.09,0.36c-0.31,0.09-0.66,0.14-1.06,0.14c-0.68,0-1.23-0.16-1.64-0.48
		c-0.41-0.32-0.67-0.79-0.78-1.4h-0.08c-0.57,0.63-1.18,1.12-1.84,1.45s-1.44,0.5-2.36,0.5c-0.97,0-1.77-0.3-2.4-0.89
		s-0.94-1.38-0.94-2.34c0-0.5,0.07-0.95,0.21-1.34c0.14-0.4,0.35-0.75,0.63-1.07c0.22-0.26,0.51-0.5,0.87-0.7s0.7-0.37,1.01-0.49
		c0.39-0.15,1.2-0.42,2.4-0.83c1.21-0.4,2.02-0.72,2.44-0.95v-1.3c0-0.11-0.02-0.33-0.07-0.66c-0.05-0.33-0.15-0.63-0.31-0.92
		c-0.18-0.32-0.42-0.61-0.74-0.85c-0.32-0.24-0.77-0.36-1.36-0.36c-0.4,0-0.78,0.07-1.13,0.2c-0.35,0.14-0.59,0.28-0.73,0.43
		c0,0.18,0.04,0.43,0.12,0.78c0.08,0.34,0.12,0.66,0.12,0.95c0,0.31-0.14,0.59-0.41,0.84c-0.28,0.25-0.66,0.38-1.15,0.38
		c-0.44,0-0.76-0.16-0.97-0.47c-0.21-0.31-0.31-0.66-0.31-1.05c0-0.4,0.14-0.79,0.43-1.16c0.28-0.37,0.66-0.7,1.11-0.99
		c0.4-0.25,0.87-0.45,1.44-0.62c0.56-0.17,1.11-0.26,1.65-0.26c0.74,0,1.38,0.05,1.93,0.15c0.55,0.1,1.05,0.32,1.49,0.65
		c0.45,0.32,0.79,0.77,1.02,1.32c0.23,0.56,0.35,1.27,0.35,2.15c0,1.25-0.01,2.37-0.04,3.34c-0.03,0.97-0.04,2.03-0.04,3.18
		c0,0.34,0.06,0.62,0.18,0.82c0.12,0.2,0.3,0.37,0.55,0.51c0.13,0.08,0.34,0.12,0.63,0.13s0.58,0.01,0.88,0.01V79.26z M438.78,72.31
		c-0.75,0.22-1.4,0.44-1.96,0.65s-1.08,0.47-1.57,0.79c-0.44,0.3-0.79,0.65-1.04,1.06c-0.25,0.41-0.38,0.89-0.38,1.46
		c0,0.73,0.19,1.27,0.57,1.61c0.38,0.34,0.87,0.51,1.45,0.51c0.62,0,1.17-0.15,1.65-0.46c0.47-0.3,0.87-0.66,1.2-1.08L438.78,72.31z
		"/>
	<path class="st12" d="M443.68,83.73c0-0.44,0.12-0.8,0.36-1.07s0.54-0.42,0.9-0.42c0.28,0,0.52,0.05,0.72,0.16
		c0.2,0.1,0.38,0.24,0.54,0.4c0.13,0.13,0.27,0.31,0.42,0.54c0.15,0.23,0.27,0.41,0.36,0.56c0.44-0.24,0.96-0.85,1.57-1.85
		c0.61-1,1.05-1.87,1.32-2.63c-0.83-2.08-1.59-3.94-2.26-5.58c-0.68-1.64-1.38-3.34-2.12-5.09c-0.17-0.4-0.45-0.72-0.84-0.94
		c-0.4-0.22-0.79-0.37-1.18-0.43v-0.87h5.93v0.92c-0.26,0.01-0.58,0.06-0.95,0.16c-0.37,0.1-0.55,0.22-0.55,0.35
		c0,0.05,0.02,0.14,0.06,0.26c0.04,0.12,0.09,0.25,0.14,0.38c0.33,0.87,0.84,2.12,1.52,3.75c0.68,1.64,1.21,2.94,1.59,3.93
		c0.4-0.94,0.81-1.91,1.23-2.91s0.9-2.19,1.43-3.56c0.06-0.17,0.15-0.4,0.26-0.69c0.11-0.29,0.17-0.55,0.17-0.76
		c0-0.23-0.2-0.44-0.6-0.64c-0.4-0.2-0.78-0.32-1.14-0.36v-0.84h4.82v0.82c-0.26,0.04-0.61,0.2-1.04,0.45
		c-0.43,0.26-0.75,0.63-0.96,1.1c-1.04,2.42-1.97,4.63-2.78,6.62c-0.81,1.99-1.43,3.46-1.85,4.4c-0.55,1.23-1.05,2.19-1.48,2.88
		c-0.43,0.69-0.86,1.23-1.27,1.63c-0.4,0.37-0.77,0.62-1.1,0.74c-0.33,0.13-0.67,0.19-1.02,0.19c-0.68,0-1.22-0.16-1.61-0.49
		C443.87,84.53,443.68,84.15,443.68,83.73z"/>
	<path class="st12" d="M480.14,79.49h-6.32v-0.87c0.2-0.02,0.41-0.04,0.61-0.05s0.39-0.05,0.55-0.11c0.25-0.08,0.43-0.22,0.55-0.42
		c0.12-0.2,0.18-0.45,0.18-0.77v-6.7c0-0.91-0.21-1.62-0.62-2.11c-0.42-0.5-0.94-0.74-1.56-0.74c-0.43,0-0.83,0.07-1.21,0.2
		c-0.38,0.13-0.72,0.32-1.04,0.55c-0.25,0.19-0.47,0.4-0.64,0.62c-0.17,0.22-0.3,0.41-0.39,0.56v7.49c0,0.31,0.05,0.56,0.16,0.76
		c0.1,0.2,0.29,0.35,0.54,0.45c0.2,0.08,0.38,0.14,0.55,0.18c0.16,0.04,0.38,0.07,0.64,0.09v0.87h-6.19v-0.87
		c0.2-0.02,0.4-0.04,0.59-0.05c0.19-0.02,0.36-0.05,0.52-0.11c0.25-0.08,0.43-0.22,0.55-0.42c0.12-0.2,0.18-0.45,0.18-0.77v-6.7
		c0-0.91-0.21-1.62-0.63-2.11c-0.42-0.5-0.94-0.74-1.56-0.74c-0.43,0-0.84,0.07-1.21,0.2c-0.38,0.14-0.73,0.32-1.04,0.56
		c-0.25,0.19-0.47,0.41-0.65,0.65s-0.31,0.42-0.4,0.55v7.44c0,0.3,0.06,0.55,0.18,0.75c0.12,0.2,0.31,0.36,0.55,0.46
		c0.18,0.09,0.37,0.15,0.57,0.2s0.41,0.08,0.65,0.09v0.87h-6.3v-0.87c0.2-0.02,0.41-0.04,0.62-0.05c0.22-0.02,0.4-0.05,0.56-0.11
		c0.25-0.08,0.43-0.22,0.55-0.41c0.12-0.2,0.18-0.45,0.18-0.77v-8.06c0-0.28-0.06-0.53-0.19-0.76c-0.13-0.22-0.31-0.41-0.53-0.57
		c-0.17-0.1-0.37-0.19-0.62-0.26c-0.25-0.07-0.5-0.11-0.76-0.13v-0.87l4.34-0.29l0.18,0.18v1.86h0.09c0.22-0.22,0.49-0.48,0.8-0.78
		c0.32-0.3,0.61-0.54,0.88-0.72c0.31-0.21,0.69-0.39,1.15-0.53c0.46-0.14,0.96-0.21,1.49-0.21c0.84,0,1.57,0.23,2.17,0.68
		c0.61,0.45,1.04,1,1.3,1.64c0.31-0.31,0.59-0.58,0.83-0.81c0.24-0.23,0.56-0.48,0.95-0.74c0.33-0.23,0.72-0.41,1.18-0.55
		c0.45-0.14,0.95-0.21,1.5-0.21c1.09,0,1.96,0.36,2.6,1.08c0.64,0.72,0.96,1.83,0.96,3.32v6.59c0,0.31,0.05,0.56,0.16,0.76
		c0.1,0.2,0.28,0.35,0.54,0.45c0.2,0.08,0.4,0.14,0.6,0.18c0.2,0.04,0.42,0.07,0.67,0.09V79.49z"/>
	<path class="st12" d="M493.21,76.44c-0.54,1.04-1.27,1.86-2.19,2.47s-1.96,0.92-3.15,0.92c-1.04,0-1.96-0.18-2.74-0.55
		c-0.79-0.37-1.43-0.87-1.94-1.5c-0.51-0.63-0.89-1.37-1.14-2.21c-0.25-0.84-0.38-1.73-0.38-2.67c0-0.84,0.13-1.67,0.4-2.48
		s0.66-1.54,1.18-2.19c0.5-0.62,1.12-1.13,1.86-1.51c0.74-0.38,1.57-0.57,2.49-0.57c0.95,0,1.76,0.15,2.44,0.45s1.22,0.71,1.65,1.22
		c0.4,0.49,0.7,1.07,0.9,1.74c0.2,0.67,0.3,1.39,0.3,2.17v0.87h-8.6c0,0.85,0.08,1.63,0.24,2.32c0.16,0.7,0.42,1.31,0.77,1.83
		c0.34,0.51,0.79,0.91,1.34,1.21c0.55,0.29,1.21,0.44,1.97,0.44c0.78,0,1.45-0.18,2.02-0.55s1.11-1.03,1.64-1.98L493.21,76.44z
		 M490.3,71.49c0-0.49-0.04-1.01-0.12-1.57s-0.22-1.03-0.4-1.4c-0.2-0.4-0.48-0.73-0.83-0.98c-0.35-0.25-0.8-0.38-1.36-0.38
		c-0.92,0-1.69,0.38-2.3,1.15c-0.61,0.77-0.94,1.83-0.99,3.2H490.3z"/>
	<path class="st12" d="M509.04,79.49h-6.34v-0.87c0.2-0.02,0.42-0.04,0.66-0.05c0.24-0.02,0.44-0.05,0.6-0.11
		c0.25-0.08,0.43-0.22,0.55-0.42c0.12-0.2,0.18-0.45,0.18-0.77v-6.67c0-0.92-0.22-1.63-0.65-2.13c-0.44-0.5-0.97-0.75-1.59-0.75
		c-0.47,0-0.89,0.07-1.28,0.22c-0.39,0.14-0.73,0.32-1.03,0.53c-0.29,0.2-0.52,0.42-0.69,0.65c-0.17,0.23-0.3,0.42-0.38,0.56v7.46
		c0,0.3,0.06,0.54,0.18,0.74c0.12,0.19,0.31,0.34,0.55,0.45c0.18,0.09,0.38,0.15,0.6,0.2c0.21,0.04,0.44,0.08,0.66,0.09v0.87h-6.36
		v-0.87c0.2-0.02,0.41-0.04,0.62-0.05s0.4-0.05,0.56-0.11c0.25-0.08,0.43-0.22,0.55-0.41c0.12-0.2,0.18-0.45,0.18-0.77v-8.01
		c0-0.3-0.06-0.57-0.19-0.82c-0.13-0.25-0.31-0.45-0.53-0.61c-0.17-0.11-0.36-0.18-0.59-0.23c-0.23-0.05-0.47-0.08-0.74-0.1v-0.87
		l4.32-0.29l0.18,0.18v1.83h0.07c0.21-0.21,0.47-0.46,0.79-0.76c0.32-0.29,0.61-0.53,0.9-0.72c0.32-0.21,0.71-0.39,1.16-0.53
		c0.45-0.14,0.95-0.21,1.51-0.21c1.25,0,2.17,0.39,2.77,1.17c0.6,0.78,0.9,1.81,0.9,3.1v6.75c0,0.31,0.05,0.55,0.16,0.74
		c0.11,0.19,0.29,0.33,0.54,0.44c0.21,0.09,0.39,0.15,0.55,0.18s0.37,0.06,0.64,0.08V79.49z"/>
	<path class="st12" d="M518.65,78.93c-0.57,0.24-1.11,0.44-1.62,0.6c-0.51,0.16-1.13,0.24-1.87,0.24c-1.09,0-1.85-0.27-2.3-0.82
		c-0.44-0.55-0.66-1.32-0.66-2.32v-8.79h-2.34v-1.26h2.4v-4.04h2.4v4.04h3.72v1.26h-3.7v7.25c0,0.54,0.02,1,0.06,1.36
		s0.13,0.68,0.28,0.95c0.14,0.25,0.35,0.45,0.63,0.58s0.66,0.2,1.13,0.2c0.22,0,0.54-0.02,0.97-0.06c0.43-0.04,0.73-0.09,0.9-0.15
		V78.93z"/>
	<path class="st12" d="M528.51,73.14c0.36,0.32,0.64,0.68,0.83,1.09c0.19,0.41,0.29,0.92,0.29,1.51c0,1.2-0.45,2.18-1.35,2.95
		s-2.06,1.15-3.49,1.15c-0.75,0-1.45-0.14-2.09-0.41c-0.64-0.27-1.09-0.52-1.36-0.75l-0.26,0.86h-0.99l-0.13-4.51h0.91
		c0.07,0.34,0.22,0.74,0.45,1.2c0.23,0.46,0.5,0.87,0.83,1.24c0.34,0.39,0.75,0.71,1.23,0.98c0.48,0.26,1.02,0.4,1.61,0.4
		c0.84,0,1.49-0.19,1.95-0.58c0.46-0.38,0.68-0.93,0.68-1.65c0-0.37-0.07-0.69-0.22-0.96c-0.15-0.27-0.36-0.5-0.64-0.7
		c-0.29-0.2-0.64-0.38-1.07-0.55s-0.89-0.32-1.41-0.48c-0.41-0.12-0.87-0.29-1.38-0.51c-0.5-0.21-0.94-0.47-1.3-0.76
		c-0.39-0.31-0.7-0.68-0.95-1.13s-0.37-0.97-0.37-1.58c0-1.06,0.39-1.96,1.18-2.7c0.79-0.74,1.85-1.11,3.17-1.11
		c0.51,0,1.03,0.07,1.56,0.2c0.53,0.13,0.96,0.29,1.3,0.47l0.3-0.68h0.95l0.2,4.17h-0.91c-0.18-0.93-0.58-1.69-1.19-2.28
		c-0.61-0.59-1.35-0.88-2.23-0.88c-0.72,0-1.29,0.18-1.7,0.54c-0.41,0.36-0.62,0.8-0.62,1.31c0,0.39,0.07,0.72,0.2,0.99
		c0.14,0.26,0.34,0.49,0.61,0.67c0.26,0.18,0.59,0.34,0.99,0.49c0.4,0.15,0.89,0.33,1.48,0.52c0.58,0.18,1.13,0.4,1.64,0.65
		C527.75,72.57,528.18,72.84,528.51,73.14z"/>
</g>
</svg>
