<svg id="Group_19" data-name="Group 19" xmlns="http://www.w3.org/2000/svg" width="28.035" height="28.07" viewBox="0 0 28.035 28.07">
  <path id="Path_16" data-name="Path 16" d="M174.515,10.8a2.888,2.888,0,0,0-2.371-2.684c-1.118-.033-1.871,1.092-1.677,2.564a2.936,2.936,0,0,0,2.376,2.722C173.96,13.441,174.709,12.276,174.515,10.8Z" transform="translate(-160.707 -0.524)" fill="#e5e3de"/>
  <path id="Path_17" data-name="Path 17" d="M173.712,16.994a3.621,3.621,0,0,0-1.084-.173c-1.659-.02-3.158,1.018-3.158,2.26a2.6,2.6,0,0,0,2.869,2.324c2.344,0,3.16-.991,3.16-2.262a1.9,1.9,0,0,0-.055-.448C175.265,17.98,174.616,17.623,173.712,16.994Z" transform="translate(-160.645 -1.083)" fill="#e5e3de"/>
  <path id="Path_18" data-name="Path 18" d="M174.055,0a14.035,14.035,0,1,0,14.019,14.035A14.025,14.025,0,0,0,174.055,0Zm-2.313,21.016c-2.411,0-4.445-.981-4.445-2.553,0-1.594,1.858-3.133,4.266-3.133.259,0,.5-.006.752-.006a1.689,1.689,0,0,1-.591-1.2,1.831,1.831,0,0,1,.219-.81c-.132.01-.261.013-.4.013a3.138,3.138,0,0,1-3.3-3.158c0-1.709,1.828-3.186,3.778-3.186h4.342l-.976.7H174a2.589,2.589,0,0,1,1.4,2.511,2.917,2.917,0,0,1-1.225,2.269c-.7.548-.833.778-.833,1.245,0,.4.75,1.072,1.141,1.35A3.031,3.031,0,0,1,176,17.887C176.011,19.458,174.492,21.018,171.742,21.018Zm9.069-6.645h-1.692v1.692h-1.361V14.374h-1.693V13.012h1.693V11.319h1.361v1.694h1.692Z" transform="translate(-160.039 -0.002)" fill="#e5e3de"/>
</svg>
