<svg id="Group_17" data-name="Group 17" xmlns="http://www.w3.org/2000/svg" width="28.035" height="28.07" viewBox="0 0 28.035 28.07">
  <path id="Path_10" data-name="Path 10" d="M138.187,14.9a3.732,3.732,0,1,1-7.464,0A3.811,3.811,0,0,1,131,13.486h-2.035v5.65a1.315,1.315,0,0,0,1.305,1.321h8.377a1.314,1.314,0,0,0,1.305-1.321v-5.65h-2.041A3.658,3.658,0,0,1,138.187,14.9Z" transform="translate(-120.434 -0.868)" fill="#e5e3de"/>
  <path id="Path_11" data-name="Path 11" d="M140.281,11.664V9.325h-.3l-2.014.007.007,2.337Z" transform="translate(-121.012 -0.6)" fill="#e5e3de"/>
  <path id="Path_12" data-name="Path 12" d="M134.666,17.261a2.416,2.416,0,0,0,2.4-2.428,2.477,2.477,0,0,0-.45-1.417,2.412,2.412,0,1,0-1.951,3.845Z" transform="translate(-120.646 -0.798)" fill="#e5e3de"/>
  <path id="Path_13" data-name="Path 13" d="M133.866,0a14.035,14.035,0,1,0,14.017,14.035A14.026,14.026,0,0,0,133.866,0ZM140.879,12.6V18.34a2.714,2.714,0,0,1-2.709,2.713h-8.6a2.712,2.712,0,0,1-2.708-2.713V9.732a2.715,2.715,0,0,1,2.708-2.713h8.6a2.71,2.71,0,0,1,2.709,2.713V12.6Z" transform="translate(-119.848 -0.001)" fill="#e5e3de"/>
</svg>
