<svg xmlns="http://www.w3.org/2000/svg" width="28.035" height="28.07" viewBox="0 0 28.035 28.07">
  <path id="Path_8" data-name="Path 8" d="M14.019,0A14.035,14.035,0,1,0,28.035,14.037,14.028,14.028,0,0,0,14.019,0Zm5.6,11.851c0,.122.008.247.008.374a8.193,8.193,0,0,1-12.616,6.91,5.592,5.592,0,0,0,.687.04,5.77,5.77,0,0,0,3.58-1.236,2.881,2.881,0,0,1-2.69-2,2.838,2.838,0,0,0,.539.051,2.9,2.9,0,0,0,.76-.1,2.886,2.886,0,0,1-2.311-2.829v-.036a2.879,2.879,0,0,0,1.3.359,2.886,2.886,0,0,1-1.281-2.4,2.853,2.853,0,0,1,.39-1.452,8.173,8.173,0,0,0,5.938,3.014,2.764,2.764,0,0,1-.075-.658,2.88,2.88,0,0,1,4.982-1.973,5.688,5.688,0,0,0,1.831-.7,2.9,2.9,0,0,1-1.267,1.6,5.737,5.737,0,0,0,1.657-.455A5.81,5.81,0,0,1,19.616,11.853Z" transform="translate(0 -0.002)" fill="#e5e3de"/>
</svg>
