<svg id="Group_18" data-name="Group 18" xmlns="http://www.w3.org/2000/svg" width="28.034" height="28.07" viewBox="0 0 28.034 28.07">
  <path id="Path_14" data-name="Path 14" d="M92.884,17.519l4.588-2.7-4.588-2.7Z" transform="translate(-80.734 -0.779)" fill="#e5e3de"/>
  <path id="Path_15" data-name="Path 15" d="M93.915,0a14.035,14.035,0,1,0,14.018,14.035A14.025,14.025,0,0,0,93.915,0Zm7.011,16.543a2.37,2.37,0,0,1-2.42,2.42H89.323a2.369,2.369,0,0,1-2.417-2.42V11.524a2.367,2.367,0,0,1,2.417-2.418h9.184a2.369,2.369,0,0,1,2.42,2.418Z" transform="translate(-79.899)" fill="#e5e3de"/>
</svg>
