<svg xmlns="http://www.w3.org/2000/svg"
     width="21.837"
     height="80.613"
     viewBox="0 0 21.837 80.613">
  <defs>
    <style>.a{fill:#B98754;}</style>
  </defs>
  <path class="a"
        d="M19.051,31.189c-1.933-4.11-3.708-11.444-3.708-14.748V4.754h.283V1.894h-.283V.766A.939.939,0,0,0,14.294,0H7.543A.939.939,0,0,0,6.494.766V1.894H6.211v2.86h.283V16.441c0,3.3-1.772,10.638-3.708,14.748S0,45.213,0,45.213V78.075c0,1.4,4.888,2.538,10.918,2.538s10.918-1.138,10.918-2.538V45.213S20.984,35.3,19.051,31.189Z"/>
</svg>
